<?xml version="1.0" standalone="no"?>
<!DOCTYPE svg PUBLIC "-//W3C//DTD SVG 20010904//EN"
 "http://www.w3.org/TR/2001/REC-SVG-20010904/DTD/svg10.dtd">
<svg version="1.0" xmlns="http://www.w3.org/2000/svg"
 width="1280.000000pt" height="1280.000000pt" viewBox="0 0 1280.000000 1280.000000"
 preserveAspectRatio="xMidYMid meet">
<metadata>
Created by potrace 1.15, written by Peter Selinger 2001-2017
</metadata>
<g transform="translate(0.000000,1280.000000) scale(0.100000,-0.100000)"
fill="#000000" stroke="none">
<path d="M1110 11339 c-385 -44 -698 -294 -821 -655 -49 -146 -62 -245 -56
-444 5 -180 19 -257 68 -390 126 -339 451 -622 874 -760 137 -44 322 -84 467
-99 124 -14 475 -14 609 -1 433 44 878 163 1344 362 124 53 557 265 642 314
31 18 33 18 60 1 139 -89 262 -127 434 -134 193 -8 348 30 567 140 184 93 314
179 712 470 629 461 939 626 1335 709 95 20 139 23 320 23 177 -1 228 -4 322
-23 269 -54 499 -165 697 -338 69 -60 129 -127 224 -249 39 -50 -22 58 -77
135 -204 290 -539 492 -929 561 -151 27 -422 30 -562 6 -428 -73 -780 -247
-1446 -718 -432 -305 -654 -436 -860 -505 -96 -33 -123 -38 -231 -42 -134 -5
-229 10 -318 51 l-49 23 124 71 c69 40 244 141 390 227 145 85 266 153 268
151 6 -6 -35 -69 -64 -99 -15 -14 -22 -26 -17 -26 15 0 98 91 117 128 18 35
42 50 351 220 610 336 1149 550 1565 623 488 85 1007 -20 1405 -285 450 -300
695 -780 695 -1359 0 -78 -3 -152 -6 -164 -5 -17 -18 -23 -72 -33 -37 -6 -114
-27 -171 -46 -440 -146 -736 -487 -843 -969 l-13 -60 -80 -9 c-93 -10 -276 5
-375 30 -160 40 -337 151 -435 273 -303 375 -260 958 87 1204 146 104 261 139
448 140 178 0 325 -41 446 -124 143 -98 95 -273 -84 -309 -143 -29 -204 -67
-247 -154 -54 -110 -16 -220 96 -279 49 -26 62 -28 134 -25 99 4 176 38 248
110 71 71 100 142 105 254 2 49 -1 116 -8 147 -51 247 -298 417 -632 434 -395
21 -703 -194 -810 -564 -20 -68 -23 -100 -22 -253 0 -161 3 -182 28 -265 96
-316 309 -532 610 -619 109 -32 276 -49 391 -41 l90 7 0 -178 c1 -150 5 -193
23 -267 70 -282 223 -478 467 -599 147 -73 273 -102 445 -102 391 2 684 216
782 572 31 110 30 333 -1 447 -80 299 -270 464 -532 465 -170 0 -312 -95 -369
-247 -26 -68 -29 -172 -7 -224 36 -86 112 -139 198 -139 123 0 215 93 241 243
25 143 104 215 208 187 57 -15 102 -59 144 -140 107 -204 116 -500 21 -705
-89 -192 -257 -331 -475 -392 -102 -28 -358 -25 -464 5 -315 90 -530 305 -611
608 -25 92 -39 267 -31 375 l8 95 86 18 c402 84 733 335 898 684 43 90 87 224
104 313 12 66 12 67 48 73 105 17 349 1 520 -34 556 -115 985 -506 1182 -1076
127 -369 141 -769 39 -1168 -113 -446 -319 -918 -682 -1563 -75 -132 -97 -164
-124 -177 -38 -18 -123 -93 -123 -109 0 -6 15 3 33 20 35 33 76 58 84 50 2 -3
-74 -139 -170 -304 -96 -164 -196 -336 -222 -382 -43 -75 -50 -82 -61 -66 -42
57 -79 254 -68 365 23 253 150 499 544 1060 369 526 527 802 635 1110 75 216
105 388 105 610 0 356 -83 640 -264 905 -106 155 -280 315 -431 395 -33 17
-49 23 -35 13 110 -81 149 -114 227 -197 394 -412 511 -1067 294 -1652 -114
-309 -268 -566 -647 -1080 -288 -390 -419 -598 -502 -794 -140 -329 -127 -621
39 -890 l21 -35 -81 -154 c-391 -741 -584 -1364 -621 -2006 -37 -651 129
-1201 464 -1540 174 -176 347 -270 586 -322 120 -25 391 -25 510 0 353 76 616
296 736 616 51 135 67 249 61 416 -9 220 -59 372 -170 518 -92 121 -256 229
-412 272 -92 25 -285 31 -381 11 -313 -63 -520 -281 -574 -605 -36 -215 56
-438 225 -546 121 -77 285 -93 360 -34 31 25 34 80 6 108 -46 46 -111 66 -269
81 -121 12 -190 39 -245 98 -37 38 -39 44 -44 118 -14 225 118 474 311 583
177 100 427 100 621 -2 84 -44 194 -155 233 -237 110 -224 70 -553 -92 -767
-144 -190 -394 -283 -681 -253 -183 20 -296 64 -426 168 -228 181 -389 513
-456 942 -25 162 -25 609 1 795 51 369 145 706 316 1135 56 138 187 440 196
449 3 3 74 -25 112 -45 1 0 -18 -45 -44 -100 -115 -246 -199 -485 -241 -684
-27 -127 -25 -406 5 -512 48 -173 164 -337 295 -416 304 -183 702 -72 802 223
83 247 -15 500 -237 609 -124 61 -218 68 -334 25 -134 -50 -227 -207 -185
-314 6 -16 9 -12 15 20 26 141 204 219 342 150 139 -69 208 -207 169 -341 -34
-119 -103 -167 -241 -168 -72 0 -89 4 -147 32 -289 143 -298 594 -24 1312 l44
115 91 6 c50 4 108 12 129 19 151 46 247 104 340 204 116 125 173 274 173 456
0 180 -55 325 -166 436 l-60 61 53 124 c295 678 487 1276 550 1709 26 179 26
630 0 780 -31 176 -99 424 -129 470 -11 18 -13 24 30 -110 62 -194 102 -463
102 -684 0 -539 -192 -1189 -601 -2035 -83 -172 -101 -202 -116 -196 -10 3
-45 13 -78 22 -33 8 -61 16 -63 17 -1 2 49 108 112 237 321 660 514 1186 587
1599 26 148 36 410 20 559 -53 502 -280 959 -618 1241 -313 261 -658 381
-1104 384 l-177 1 6 120 c12 282 -53 603 -170 844 -92 189 -256 394 -422 530
-271 222 -632 369 -1004 412 -137 15 -468 7 -587 -15 -435 -80 -1019 -299
-1683 -630 -84 -42 -155 -76 -158 -76 -2 0 -4 12 -4 28 -1 15 -9 51 -19 81
l-19 54 212 102 c444 216 790 353 1174 466 554 162 1089 172 1537 29 132 -43
138 -44 85 -20 -195 91 -636 161 -920 146 -559 -30 -1056 -171 -1972 -558
l-168 -71 -69 66 c-117 111 -249 160 -426 160 -198 -1 -340 -57 -470 -188
-130 -130 -188 -253 -209 -444 l-11 -104 -75 -29 c-261 -100 -546 -180 -730
-204 -378 -48 -631 85 -648 340 -8 136 43 225 150 259 106 33 195 15 276 -58
105 -94 134 -211 80 -326 -29 -64 -73 -102 -138 -119 -38 -11 -42 -14 -25 -21
97 -39 234 39 302 171 25 49 28 65 28 155 0 95 -2 104 -37 178 -114 239 -365
341 -620 253 -127 -44 -223 -142 -280 -284 -20 -50 -22 -75 -22 -197 0 -129 2
-145 27 -209 104 -262 339 -416 663 -433 256 -13 538 57 933 233 91 41 166 73
167 71 1 -1 13 -26 28 -55 l26 -52 -77 -36 c-585 -267 -1064 -418 -1523 -479
-183 -25 -499 -30 -670 -12 -571 61 -981 278 -1145 606 -60 120 -78 203 -79
381 -1 177 16 258 81 385 54 104 173 218 283 272 117 58 185 74 328 80 148 7
220 -6 322 -54 281 -134 404 -531 258 -831 -99 -206 -378 -359 -612 -336 -61
6 -72 10 -105 43 -54 54 -81 120 -92 225 -18 182 -44 257 -100 298 -80 60
-151 -73 -120 -224 48 -228 254 -380 516 -379 264 0 506 143 623 368 66 127
86 215 86 368 0 159 -16 229 -86 375 -44 92 -61 115 -142 195 -69 69 -111 101
-171 132 -103 53 -223 88 -353 102 -114 12 -124 12 -232 0z m3803 -559 c66
-21 192 -96 190 -115 -1 -10 -223 -110 -680 -306 -127 -54 -234 -99 -237 -99
-8 0 2 73 21 139 53 194 192 334 384 385 83 22 243 20 322 -4z m297 -262 c10
-24 21 -56 24 -73 l6 -30 -257 -130 c-142 -71 -360 -180 -486 -242 l-227 -112
-25 49 c-14 27 -25 54 -25 60 0 5 39 30 88 54 48 25 263 139 477 255 215 116
394 211 398 211 4 0 16 -19 27 -42z m4040 -1342 c0 -26 -29 -139 -54 -213
-118 -346 -389 -615 -748 -741 -77 -28 -228 -65 -235 -58 -1 1 6 38 17 82 112
469 432 801 885 920 106 27 135 29 135 10z m1323 -4033 c27 -12 36 -21 32 -32
-4 -9 -104 -198 -224 -421 -120 -223 -233 -434 -251 -470 -18 -36 -34 -67 -35
-68 -3 -4 -105 45 -114 53 -2 2 106 222 239 488 l243 485 36 -10 c20 -5 53
-16 74 -25z m172 -134 c66 -79 105 -199 105 -324 -1 -228 -110 -411 -301 -504
-79 -38 -220 -73 -234 -59 -8 7 30 98 232 561 86 196 160 357 164 357 4 0 19
-14 34 -31z"/>
<path d="M9606 11253 c55 -226 74 -397 74 -663 0 -291 -27 -512 -95 -780 -30
-117 -46 -172 -80 -265 -4 -11 369 356 828 815 460 459 835 836 833 837 -2 2
-59 -8 -127 -21 -324 -65 -701 -50 -1062 44 -116 30 -302 92 -349 116 -15 8
-31 14 -36 14 -5 0 1 -44 14 -97z"/>
<path d="M9410 11228 c-27 -108 -116 -372 -157 -466 -25 -57 -67 -139 -93
-182 l-47 -78 52 -56 c135 -142 230 -434 261 -796 l7 -85 19 55 c10 30 34 124
53 210 65 293 90 536 82 780 -6 175 -23 288 -62 423 -23 81 -89 237 -99 237
-3 0 -10 -19 -16 -42z"/>
<path d="M8330 11145 c14 -8 30 -14 35 -14 6 0 -1 6 -15 14 -14 8 -29 14 -35
14 -5 0 1 -6 15 -14z"/>
<path d="M8410 11110 c19 -11 40 -19 45 -19 6 0 -6 8 -25 19 -19 11 -39 19
-45 19 -5 0 6 -8 25 -19z"/>
<path d="M10410 10273 c-459 -459 -826 -832 -815 -829 537 191 1162 228 1695
102 58 -13 106 -23 107 -22 1 1 -13 40 -32 86 -78 197 -143 462 -170 690 -25
223 -7 558 40 741 9 34 15 63 13 65 -2 2 -379 -373 -838 -833z"/>
<path d="M10356 9519 c-212 -20 -581 -90 -704 -133 l-37 -13 60 -7 c255 -29
373 -50 500 -92 118 -38 249 -110 316 -171 l59 -55 74 47 c132 82 383 182 591
235 50 13 94 26 98 30 11 10 -137 76 -235 104 -46 13 -126 31 -178 40 -115 20
-407 28 -544 15z"/>
<path d="M11151 8365 c0 -5 6 -21 14 -35 8 -14 14 -20 14 -15 0 6 -6 21 -14
35 -8 14 -14 21 -14 15z"/>
<path d="M11190 8275 c0 -5 5 -17 10 -25 5 -8 10 -10 10 -5 0 6 -5 17 -10 25
-5 8 -10 11 -10 5z"/>
</g>
</svg>
