<?xml version="1.0" standalone="no"?>
<!DOCTYPE svg PUBLIC "-//W3C//DTD SVG 20010904//EN"
 "http://www.w3.org/TR/2001/REC-SVG-20010904/DTD/svg10.dtd">
<svg version="1.0" xmlns="http://www.w3.org/2000/svg"
 width="1280.000000pt" height="1128.000000pt" viewBox="0 0 1280.000000 1128.000000"
 preserveAspectRatio="xMidYMid meet">
<metadata>
Created by potrace 1.15, written by Peter Selinger 2001-2017
</metadata>
<g transform="translate(0.000000,1128.000000) scale(0.100000,-0.100000)"
fill="#000000" stroke="none">
<path d="M5380 11273 c-99 -8 -298 -46 -383 -74 -92 -30 -458 -208 -531 -258
-74 -51 -215 -182 -288 -265 -87 -100 -201 -271 -261 -391 -123 -245 -172
-550 -132 -816 13 -87 52 -226 77 -272 8 -15 -4 -37 -65 -116 -171 -222 -308
-455 -322 -547 -8 -51 15 -82 67 -91 49 -7 55 9 39 100 -13 81 -5 101 32 77
13 -8 59 -37 104 -65 l80 -50 7 -140 c17 -346 96 -586 264 -810 81 -109 170
-183 291 -243 l94 -47 -74 -23 c-611 -192 -1267 -226 -1782 -92 -216 56 -550
182 -697 263 -109 60 -277 176 -379 262 -56 47 -104 85 -105 83 -2 -2 -47 -64
-101 -138 l-98 -134 49 -44 c244 -216 424 -342 672 -466 373 -187 789 -286
1285 -305 l168 -6 -77 -59 c-575 -443 -1089 -1079 -1370 -1695 -259 -572 -382
-1178 -353 -1742 l8 -144 -27 -23 c-40 -33 -110 -68 -177 -87 -71 -21 -222
-16 -320 11 -284 76 -524 302 -646 608 -60 151 -109 394 -109 543 -1 62 -3 74
-12 59 -8 -14 -9 -67 -4 -174 14 -331 67 -536 193 -745 162 -269 379 -406 683
-433 148 -13 312 35 398 116 21 21 33 27 36 18 2 -7 13 -67 24 -134 96 -551
393 -1091 812 -1475 123 -113 189 -158 355 -241 370 -187 507 -238 699 -263
203 -27 504 -17 691 23 317 68 508 146 748 305 420 279 726 654 869 1067 92
264 99 493 23 755 -50 172 -144 299 -290 390 -135 85 -320 133 -463 121 l-73
-6 40 48 c51 60 71 109 71 169 0 59 -38 145 -74 168 -51 34 -147 -2 -281 -103
-132 -100 -538 -533 -518 -552 15 -15 276 -99 413 -134 280 -71 449 -70 514 2
22 26 35 113 23 167 -13 60 -48 99 -132 141 -41 22 -73 44 -72 49 7 19 136 17
220 -4 202 -52 395 -188 467 -330 91 -181 121 -488 67 -691 -111 -424 -417
-833 -823 -1103 -473 -314 -1069 -400 -1596 -231 -174 56 -460 212 -611 334
-104 84 -281 270 -366 387 -471 643 -598 1566 -335 2426 44 147 111 322 170
446 42 90 50 102 83 113 50 18 230 15 315 -6 275 -66 520 -289 652 -595 62
-143 108 -362 117 -562 l4 -76 -68 5 c-43 3 -80 0 -99 -8 -38 -16 -87 -71
-112 -127 -17 -38 -17 -46 -5 -76 31 -72 138 -129 342 -181 91 -23 261 -56
289 -56 13 0 11 103 -4 290 -21 242 -60 401 -111 452 -34 34 -51 35 -105 3
-60 -35 -94 -96 -104 -188 l-7 -72 -2 108 c-5 406 -109 719 -317 955 -160 182
-434 289 -677 263 -37 -4 -67 -6 -67 -4 0 18 193 333 285 465 203 292 554 650
870 889 338 256 647 427 1100 609 370 149 453 184 662 286 650 316 993 431
1488 500 286 39 752 27 1012 -26 230 -48 564 -165 785 -276 l66 -33 8 -58 c12
-93 9 -410 -5 -513 -71 -528 -307 -1002 -674 -1357 -135 -130 -262 -222 -417
-301 -380 -196 -785 -241 -1129 -125 -98 33 -167 68 -278 142 -359 240 -505
700 -359 1135 81 239 242 449 410 531 96 48 225 79 290 71 91 -10 221 -89 277
-167 12 -17 19 -33 16 -36 -3 -3 -33 4 -66 16 -34 12 -73 21 -88 21 -76 0
-183 -95 -183 -162 0 -38 31 -92 78 -134 74 -68 285 -185 465 -257 76 -31 87
-33 91 -19 16 58 31 268 31 452 0 177 -3 225 -18 272 -29 96 -77 116 -166 70
-54 -28 -89 -79 -109 -160 l-19 -72 -32 50 c-64 99 -183 171 -296 178 -156 10
-336 -62 -470 -190 -163 -154 -273 -360 -331 -619 -26 -115 -24 -350 4 -460
58 -232 171 -431 305 -538 220 -175 340 -238 540 -286 502 -119 1028 17 1485
387 96 78 258 239 338 338 139 170 283 421 374 650 104 261 180 626 180 866 0
51 4 94 8 94 14 0 162 -128 244 -212 179 -181 388 -484 388 -560 0 -22 4 -29
14 -25 27 11 147 -294 206 -521 108 -416 114 -817 19 -1277 -30 -145 -88 -295
-194 -500 -147 -283 -217 -480 -266 -745 -19 -106 -23 -160 -23 -350 -1 -124
2 -247 6 -275 l8 -50 -85 -1 c-78 0 -90 -3 -167 -42 -251 -125 -478 -441 -543
-756 -70 -342 -21 -670 151 -1007 48 -94 50 -101 30 -118 -11 -9 -27 -6 -71
14 -107 47 -163 43 -244 -16 -59 -42 -101 -104 -101 -149 0 -71 100 -185 251
-285 95 -64 460 -248 470 -238 8 9 50 267 70 428 17 141 17 397 0 463 -17 70
-53 112 -93 112 -95 0 -190 -72 -227 -173 -11 -32 -21 -64 -21 -72 0 -32 -19
-22 -35 18 -135 331 -164 642 -90 953 97 406 392 759 654 781 l69 6 7 -34 c50
-232 196 -499 369 -673 249 -250 560 -366 951 -353 l160 5 155 52 c202 67 297
114 406 198 314 243 485 567 485 918 0 139 -20 237 -68 334 -46 94 -111 158
-210 207 -71 35 -83 38 -158 37 -56 -1 -97 -8 -135 -23 -30 -11 -57 -21 -61
-21 -3 0 -1 26 5 58 11 70 5 100 -31 143 -30 36 -78 59 -121 59 -59 0 -133
-108 -190 -277 -49 -142 -136 -535 -120 -541 4 -2 59 13 120 34 371 122 611
256 632 351 9 41 -24 107 -67 133 -36 22 -83 25 -157 9 -72 -15 -85 -5 -18 14
31 10 87 17 125 17 58 0 80 -5 131 -31 179 -89 256 -238 256 -494 0 -207 -51
-375 -168 -549 -325 -486 -963 -661 -1482 -406 -171 84 -329 216 -432 362 -61
87 -146 265 -177 374 -59 208 -79 472 -50 654 37 223 77 344 317 935 105 259
203 507 219 552 164 472 151 991 -40 1544 -46 134 -115 297 -176 419 l-43 86
23 115 c52 256 157 509 303 729 86 129 285 342 408 436 62 47 75 54 93 45 29
-16 32 -14 25 13 -5 21 2 29 63 64 296 172 643 224 950 143 159 -42 310 -130
429 -253 130 -133 194 -253 230 -427 22 -113 15 -315 -15 -416 -80 -266 -283
-505 -488 -574 -82 -28 -220 -29 -278 -2 -86 39 -185 172 -185 248 0 18 -4 33
-10 33 -31 0 15 -154 66 -223 39 -54 108 -102 169 -118 64 -18 220 -6 285 21
142 60 295 198 390 353 55 90 121 248 141 342 17 77 17 312 0 390 -15 69 -57
198 -77 237 -18 35 -156 212 -208 267 -77 81 -248 179 -406 231 -305 103 -665
69 -995 -94 l-105 -52 0 43 c0 48 34 149 73 216 15 25 64 85 110 133 320 340
786 463 1261 335 82 -23 213 -71 256 -96 29 -16 22 -20 -50 -30 -86 -11 -146
-69 -172 -167 -16 -61 -4 -95 42 -122 54 -32 262 -29 428 6 68 15 126 29 128
31 17 17 -93 433 -137 518 -54 108 -108 127 -171 62 -20 -21 -41 -49 -49 -63
-14 -29 -14 -139 1 -189 5 -19 8 -36 7 -37 -1 -2 -51 22 -110 52 -221 113
-364 154 -572 161 -365 13 -627 -79 -867 -305 -189 -178 -276 -348 -265 -518
l5 -82 -56 -39 c-257 -175 -490 -450 -651 -769 -56 -112 -125 -281 -142 -349
-6 -25 -15 -47 -19 -50 -4 -2 -22 17 -40 43 -104 146 -261 317 -408 445 -89
77 -325 257 -337 257 -2 0 -34 18 -69 39 -406 249 -911 391 -1448 408 l-197 6
16 36 c165 385 253 845 240 1266 -11 370 -83 671 -229 958 -57 110 -158 267
-224 344 -24 28 -44 56 -44 63 0 21 105 115 166 147 113 60 199 78 379 77 144
0 169 -3 246 -27 296 -91 496 -261 672 -574 49 -86 110 -229 105 -245 -2 -5
-21 18 -43 52 -66 102 -134 126 -252 86 -122 -41 -143 -150 -72 -360 51 -148
271 -563 304 -572 6 -2 49 52 96 119 307 433 440 711 388 809 -26 48 -141 63
-216 27 -25 -12 -72 -53 -111 -95 -36 -41 -70 -74 -73 -74 -4 0 -10 17 -14 38
-9 49 -68 207 -115 309 -107 231 -282 422 -492 537 -151 83 -322 117 -490 97
-244 -30 -417 -114 -509 -247 l-30 -44 -82 73 c-112 99 -196 157 -329 227
-281 147 -611 210 -958 183z m376 -182 c560 -115 981 -482 1169 -1021 49 -141
101 -345 117 -455 16 -114 16 -470 -1 -595 -25 -194 -77 -418 -135 -588 -25
-73 -139 -346 -155 -371 -5 -8 -51 -18 -122 -27 -448 -55 -872 -180 -1306
-384 -66 -31 -104 -44 -106 -37 -3 7 -12 2 -22 -12 -18 -23 -192 -111 -412
-206 l-112 -48 -88 21 c-314 77 -574 342 -687 699 -33 105 -64 261 -73 358
l-6 75 44 -15 c60 -22 167 -21 216 2 46 22 73 70 73 134 0 60 -31 180 -68 262
l-30 65 45 -28 c25 -16 84 -43 132 -61 143 -53 275 -43 425 33 108 55 223 155
261 228 20 39 35 30 35 -20 0 -133 51 -208 155 -230 84 -18 129 -1 167 60 57
92 88 291 88 555 0 142 -15 373 -24 382 -6 7 -198 -108 -351 -210 -302 -202
-473 -375 -451 -461 10 -39 62 -93 103 -107 53 -17 131 -5 203 31 34 17 64 29
67 26 10 -9 -44 -69 -102 -113 -127 -96 -312 -162 -414 -147 -62 9 -154 45
-228 88 -138 81 -240 249 -284 471 -19 96 -17 336 4 443 55 275 200 535 418
752 168 168 330 271 576 369 133 53 256 82 443 105 84 10 338 -3 436 -23z"/>
<path d="M12630 6141 c-77 -24 -128 -73 -190 -184 -18 -32 -39 -61 -46 -64 -8
-3 -39 18 -71 46 -66 59 -108 76 -167 67 -52 -8 -141 -60 -170 -99 -49 -67
-10 -197 110 -364 104 -144 372 -428 389 -411 11 11 144 311 191 431 104 264
143 452 111 529 -12 29 -23 39 -54 47 -43 12 -67 13 -103 2z"/>
<path d="M158 4603 c-113 -283 -170 -502 -154 -586 13 -71 80 -84 169 -34 36
20 117 126 117 153 0 6 9 19 19 28 22 20 26 18 85 -28 54 -43 114 -42 185 4
115 73 107 164 -27 331 -78 96 -295 299 -320 299 -4 0 -38 -75 -74 -167z"/>
</g>
</svg>
