<?xml version="1.0" encoding="utf-8"?>
<!-- Generator: Adobe Illustrator 22.0.1, SVG Export Plug-In . SVG Version: 6.00 Build 0)  -->
<svg version="1.1" id="Layer_1" xmlns="http://www.w3.org/2000/svg" xmlns:xlink="http://www.w3.org/1999/xlink" x="0px" y="0px"
	 width="400px" height="170px" viewBox="0 0 400 170" style="enable-background:new 0 0 400 170;" xml:space="preserve">
<style type="text/css">
	.st0{fill:#7D9100;}
	.st1{fill:#F46D8D;}
	.st2{fill:#F383A1;}
	.st3{fill:#C9DE55;}
	.st4{fill:#462323;}
	.st5{fill:#FFFFFF;}
	.st6{fill:#FBC5D1;}
	.st7{fill:#565656;}
</style>
<g>
	<path class="st0" d="M321,25.2c0.4-1,2.9-4.5,2.9-4.5s0.3,5.6-0.2,7.4c2.8-2.7,5.3-5.8,7.4-9.2c0.5-0.9,3.8-5.2,3.8-5.2
		s-0.3,5-1.2,7.1c5.2-3.5,10.1-8.8,13.5-13.8c0.3-0.4,0.2,8.3-0.8,11.6c-0.8,2.6-1.7,5.3-2.9,7.8c-0.5,1.2-1.7,2.1-2.6,3
		c1.3-0.4,5-1.2,4.7-0.6c-1.6,3.1-4.4,5.5-6.8,8.1c-1,1.1-2.3,1.9-3.5,2.9c-0.4,0.3-1.6,1-2.6,1.6c1.2-0.3,4.7-0.9,4.2-0.3
		c-2.5,3-5.8,5.3-8.9,7.5c-1.6,1.1-3.1,2.2-4.9,2.9c-1.1,0.5-2.2,0.6-3.2,0.7c1.4,0.3,4.8,1.6,4.4,1.8c-3.4,2.4-8.1,2.2-12,1.8
		c-2.3-0.2-4.5-0.7-6.7-1.2c-0.5-0.1-0.9-0.2-1.4-0.3c0,0,0.1-0.1,0.1-0.1c1.4-0.7,2.8-1.5,4.2-2.2c6.2-3.6,18.1-15.4,17.8-15.7
		c-0.1-0.6-13.6,8.7-20.2,11c-1.1,0.4-2.2,0.8-3.3,1.2c1.5-2.4,2.6-5.1,3.9-7.6c0.7-1.4,1.5-2.8,2.1-4.3c0.3-0.9,3.3-5,3.3-5
		s0.6,3.7,0.5,6.5c2.4-2.3,4.1-6,5.8-8.7C319.1,28.2,320.3,26.7,321,25.2z"/>
</g>
<g>
	<g>
		<path class="st1" d="M12.9,95.1c-0.8-0.3-0.2-1.1-0.8-1.5c-0.8-0.5-0.8-1.1-0.5-2c0-0.1,0.2-0.2,0.3-0.2c0,0,0,0,0.1,0
			c3.7-0.8,7.4-1.6,11-2.4c2-0.4,3.9-0.9,5.9-1.3c1.2-0.3,3.2-1.4,4.3-0.8c0.1,0,0.1,0.1,0.1,0.2c-1,4.8-7.9,6.4-11.7,7.8
			C19.1,95.6,15.4,96.1,12.9,95.1z"/>
	</g>
	<g>
		<path class="st2" d="M32,79c-0.5-0.5-1-0.8-1.6-1.1c-0.6-0.2-1.2-0.4-1.7-0.7c-0.1-0.1-0.3-0.1-0.4-0.2c-0.5-0.2-1-0.4-1.5-0.6
			c-2.2-0.9-4.4-1.8-6.7-2.6c-2.3-0.8-4.7-1.5-7.1-2c-0.8-0.2-3.6-0.3-3.8-1.5c0-0.1,0-0.2,0.1-0.3c0.5-0.4,1.8-0.7,1.6-1.2
			c-0.1-0.1,0.1-0.3,0.2-0.3c0.5-0.2,0.4-0.4,0-0.8c-0.1-0.1,0-0.2,0-0.3c0.3-0.4,1.9-0.4,0.8-1.1c-0.1,0-0.1-0.1-0.1-0.2
			c0.3-1.1,3.2-1.5,4.2-1.5c3-0.2,5.6,0.3,8.4,1.3c4.5,1.6,9.5,4.4,11.3,9.1c0,0,0,0.1,0,0.1c0,0.1,0,0.1-0.1,0.2
			c-0.5,0.6-1,1.3-1.5,1.9c-0.2,0.4-0.4,0.7-0.7,0.9c-0.2,0.2-0.4,0.5-0.6,0.7C32.5,79,32.1,79.1,32,79z"/>
	</g>
	<g>
		<path class="st1" d="M12.5,80.2c-2.2-0.1-4.3,0.8-6.4,0.7c-0.3,0-0.3-0.3-0.1-0.4c0.5-0.5-0.3-0.4-0.5-0.7c-0.1-0.2,0-0.5,0-0.7
			c0.1-0.9-0.1-0.6-0.3-1.4c0-0.2-0.1-0.9,0-0.9c-0.5-0.4-0.4-0.2-0.6-0.9c-0.1-0.4-0.6-0.4-0.8-0.8c0-0.1,0-0.2,0.1-0.2
			c0.7-0.9,0-0.9-0.4-1.6c-0.3-0.5,1.5-0.9,1.7-1c2.7-0.9,5.9-1.5,8.7-1.3c3.8,0.3,7.2,0.7,10.8,2c2.8,1,5.9,2.7,8.3,4.5
			c0,0,0,0,0,0c0,0,0.1,0.1,0.1,0.1c0,0,0,0.1,0,0.1c0,0,0,0,0,0c-0.6,1.7-1.2,3.3-1.8,5c-0.1,0.2-0.5,0.3-0.7,0.2
			c-2-1-4.8-1.5-6.9-1.9c-1.9-0.3-3.8-0.3-5.7-0.5C16,80.3,14.3,80.3,12.5,80.2z"/>
	</g>
	<g>
		<path class="st2" d="M8.7,92.5c-0.4-0.2-0.7-0.4-0.9-0.9c-0.2-0.6-1-1.1-1.2-1.6c-0.2-0.8,0.4-1.3-0.7-1.7
			c-0.3-0.1-1.1-0.6-1.1-1.1C5,86.6,5.5,86,4.7,85.6c-0.3-0.1-1-0.5-0.9-0.9c0-0.2,0.2-0.4,0.4-0.5c1.1-0.7-0.6-1.1-1.1-1.3
			c-2.7-1.1,2.1-2.9,2.8-3.1c0.8-0.2,1.5-0.3,2.2-0.4c3.7-0.8,7.6-1.3,11.3-1c4.5,0.3,9.7,0.6,13.8,2.9c0.3,0.2-0.2,0.5-0.5,0.5
			c0,0,0,0,0,0c0.1,0,0.1,0.1,0.2,0.1c0.6,0.5,0.3,1.9,0.3,2.5c-0.1,0.8,0,1.5-0.4,2.1c0.1,0.1,0.1,0.2,0.1,0.3
			c0.2-0.1,0.5-0.3,0.7-0.4c0.4-0.2,0.8,0.1,0.4,0.4c-1.3,0.8-2.6,1.3-4,1.8C28,89.5,17.2,92,15.1,92.2c-1.6,0.2-3.9,0.7-5.6,0.4
			C9.2,92.7,8.9,92.6,8.7,92.5z"/>
	</g>
	<g>
		<path class="st3" d="M125.6,113.1c-17.2-14.6-39.8-23.2-62.4-25.6c-0.1,0-3.8-0.7-6.5,1.5c-0.7,0.5-1.4,1-2,1.4
			c-2,1.2-4,1.8-6.2,2.5c-2.7,0.9-5.4,0.7-8-0.2c-1.2-0.2-8.1-2.1-8.7-3.8c-0.6-1.5-1-3.1-1.1-4.7c0,0,0-0.1,0-0.1
			c-0.1-1,0-2.1,0.1-3c0.3-1.9,0.5-3.6,1.7-5.2c0.5-0.8,1.4-2.8,2.6-2.9c1.1-0.2,6.3-0.5,7.8-0.4c0.7,0.1,1.5,0.2,2.3,0.3
			c0,0,0,0,0.1,0c0.8,0.2,1.6,0.4,2.3,0.6c0.4,0.1,0.7,0.2,1,0.3c0.7,0.2,1.3,0.5,1.9,0.8c2.6,1.2,5,3,6.7,5.3
			c1.5,1.9,3.5,4.1,5.9,4.6c0,0,0.8,0.1,0.9,0.1c23.5,2.3,47,11.2,65,26.5C130.2,112.4,126.8,114.1,125.6,113.1z"/>
	</g>
</g>
<g>
	<g>
		<path class="st3" d="M39,43.3c-0.1-0.2,0-0.5,0.2-0.5c6.7-1.1,13.3,0.7,19.6,2.6c3.1,0.9,6.5,2.7,9,4.7c2.5,1.9,4.7,4,5.9,7
			c0,0.1,0.1,0.1,0.1,0.2c0,0.2,0,0.4,0,0.6c0,0.1-0.1,0.3-0.2,0.3c-2.6,1.1-5.7,1.3-8.5,1.5c-3.5,0.3-6.8-1.2-9.9-2.4
			C48.6,54.7,43.1,49.1,39,43.3z"/>
	</g>
	<g>
		<path class="st3" d="M49.8,64.7c10.4-1.7,21.4-5.9,30.9,0.6c0.1,0.1,0.3,0.1,0.4,0.1c0.4,0.2,0.7,0.6,0.3,1
			c-4.2,4.5-8,6.7-14.2,5.9c-6.4-0.9-12.4-3.1-17.9-6.4C48.4,65.4,49.3,64.8,49.8,64.7z"/>
	</g>
	<g>
		<path class="st3" d="M66.9,80.1c4.8-3.6,10.6-6.2,16.3-8.1c5.1-1.7,9.5-1,13.8,2.2c0.1,0.1,0.2,0.2,0.2,0.2
			c0.1,0.1,0.3,0.3,0.4,0.4c0.1,0.1,0.2,0.4,0.1,0.5c-2.9,4.3-7.8,7-12.9,7.4C79,83.3,72.8,83,67.5,81.2
			C67.1,81.1,66.3,80.6,66.9,80.1z"/>
	</g>
	<g>
		<path class="st3" d="M87.3,88.9c5-2.5,10.2-5.7,15.9-6.3c5.2-0.5,10.3,2,13.3,6.1c0.2,0.1,0.3,0.3,0.2,0.6c0,0.1-0.1,0.1-0.1,0.2
			c-6.4,10.4-20.5,4.4-29.1,0.5C87,89.8,86.7,89.1,87.3,88.9z"/>
	</g>
	<g>
		<path class="st3" d="M123.5,87.4C123.5,87.4,123.5,87.3,123.5,87.4c-0.1-0.1-0.1-0.2-0.2-0.3c0-0.1,0-0.1,0-0.2
			c-3.6-4.3-8.1-7.2-9.9-12.9c-1.7-5.4-0.7-11.7-0.7-17.3c0-0.9,1.8-0.7,2.1-0.2c3.2,5.3,8.3,9.6,11.1,15.3
			c2.4,4.7,3.2,11.3-0.2,15.6c0,0.2-0.1,0.3-0.3,0.4C124.8,88.1,123.7,87.9,123.5,87.4z"/>
	</g>
	<g>
		<path class="st3" d="M93.9,61.9c-3.9-7.1-4.5-16.6-2.8-24.4c0.2-0.8,1.7-0.8,2.1-0.2c5.3,8.2,19.7,21.2,11.7,31.6
			c0,0.1-0.1,0.2-0.2,0.3C101.3,71.8,95.3,64.4,93.9,61.9z"/>
	</g>
	<g>
		<path class="st3" d="M73.8,51.8C70.8,46.4,71,40,70.5,34c-0.1-1,1.7-0.6,2.1-0.2c5.7,5.8,21,17.3,14.1,27
			c-0.1,0.1-0.1,0.2-0.2,0.2c-0.2,0.2-0.5,0.3-0.9,0.2C80.7,60.8,76,55.7,73.8,51.8z"/>
	</g>
	<g>
		<path class="st0" d="M67.2,66.4c6.1-2.4,12.9-2.1,19.4-1.3L84,63.5c-1.7-1-3.8-1.4-5.5-2.5c-3.2-2-7.1-3.6-10.7-4.7
			c-3.3-1-6.7-1.7-10-2.9c-1.8-0.7,0.4-2,1.6-1.5c3.4,1.3,7.5,2.3,11.1,3.2c2.8,0.7,6.4,2.4,8.9,4c2,1.2,4.2,2.2,6.3,3.2
			c-3.2-3.5-5.9-7.7-7.5-11.9c-0.5-1.3,2.5-1.4,2.9-0.3c2.2,5.9,7,12,12,15.8c0.4,0.3,0.5,0.6,0.4,0.8c2.4,1.4,4.8,2.8,7.2,4.3
			c2.1,1.3,4.1,2.6,6.1,4c-1.2-1.5-2.4-3.1-3.6-4.6c-1.1-1.4-2.1-2.9-2.6-4.7c-0.6-2.1-2.1-4.1-2.2-6.3c0-1.2,2.9-1.1,3,0.2
			c0.1,1.8,1.4,4.2,2.1,5.8c1,2.4,2.3,4.2,4,6.2c2.8,3.3,5.2,6.8,8,10.1c0.1,0.1,0.1,0.2,0.1,0.2c2.2,1.9,4.3,4,6.3,6.1
			c0.6,0.6,1.1,1.2,1.7,1.8c-0.3-1.2-0.6-2.5-0.9-3.7c-0.8-3.1-2.1-6-2.9-9.1c-0.3-1.4,2.6-1.4,2.9-0.3c0.7,2.9,1.7,5.5,2.6,8.3
			c1,2.9,1.2,5.9,2.4,8.7c0.1,0.1,0.1,0.3,0.1,0.4c3.2,3.3,6.4,6.6,9,10.4c0.9,1.3-2,1.7-2.6,0.7c-3.1-4.6-7.1-8.8-11.1-12.7
			c-0.1,0-0.1,0-0.2,0c-4.9-1.5-9.2-3.5-14.6-3c-1.6,0.2-2.6-1.7-0.6-1.9c3.1-0.3,5.9,0,8.9,0.6c1,0.2,2,0.5,3,0.9
			c-3.6-3.5-7.4-6.9-11.3-10c-0.1,0-0.2-0.1-0.2-0.1c-6.4-3-12.2-4.6-19.2-2.7c-1.3,0.3-3.3-1.2-1.4-1.7c5.4-1.5,10.1-1.3,14.9,0.1
			c-1.3-0.9-2.6-1.8-4-2.6c-2.6-1.6-5.3-3.1-8-4.7c-0.2,0-0.4,0-0.6,0c-6.8-1.1-14.8-2-21.4,0.6C67.3,68.6,65.4,67.1,67.2,66.4z"/>
	</g>
	<g>
		<path class="st0" d="M123.5,100.2c-0.1-0.1-0.2-0.2-0.3-0.3c-0.3-0.5-0.1-1.1,0.4-1.4c0.1,0,0.2-0.1,0.3-0.1
			c0.3-0.1,0.6-0.2,0.8-0.2c0.8,0,2,0.3,2.5,0.9c0.2-0.1,0.5-0.1,0.6-0.1c1,0,2.2-0.1,3.2,0.1c0-0.6,0.2-1.2,0.4-1.8
			c0.3-0.9,0.4-1.7,0.5-2.6c-0.2-0.1-0.4-0.2-0.6-0.4c-0.7-0.8-0.8-2.4,0.3-2.8c0.2-0.1,0.4-0.1,0.6-0.2c1.7-0.9,4.5,1.5,2.9,3
			c-0.2,0.2-0.6,0.4-1,0.5c-0.1,0.8-0.2,1.5-0.4,2.3c-0.2,1-0.7,1.9-0.6,2.9c0.1,0.5-0.6,0.7-1.2,0.6c-0.4,0.2-1,0.2-1.4,0
			c-0.3-0.1-0.8-0.1-1.1-0.1c-0.6,0-1.2,0-1.8,0c-0.1,0-0.2,0-0.3,0c0,0.1-0.1,0.1-0.1,0.2c-0.3,0.8-1.4,1.1-2.3,0.9
			C124.4,101.4,123.7,100.9,123.5,100.2z"/>
	</g>
</g>
<g>
	<path class="st4" d="M76.7,143.8c3.4-3.5,7.3-6.8,9.8-10.9c1.5-2.5,2.7-4.5,2.9-7.5c0.2-2,0-4.2-0.4-6.2c-1.4,1-2.8,1.9-4.2,3l0,0
		c-1.4,2.1-2.2,4.5-3.7,6.7c-1.6,2.3-3.4,4.4-5.6,6.2c-3.8,3.1-8.1,6.1-13.1,6.7c-2.3,0.3-1.5-2.1,0.3-2.3c4.4-0.5,8.1-3.6,11.4-6.4
		c1.8-1.4,3.3-3.6,4.6-5.5c0.2-0.2,0.3-0.5,0.5-0.8c-0.4,0.3-0.8,0.6-1.3,0.9c-2.5,1.5-5.4,2.5-8.2,3.4c-2.6,0.8-5.2,1.4-7.9,1.9
		c-2.7,0.4-5.2,1.3-7.8,1.9c-2.3,0.5-1.5-1.9,0.3-2.3c2.1-0.4,4.1-1.1,6.2-1.6c2.6-0.6,5.3-0.9,7.8-1.7c2.6-0.8,5.2-1.6,7.6-2.8
		c1.8-1,3.2-2.5,4.8-3.8c0.1-0.1,0.2-0.3,0.4-0.4c1.4-1.1,2.8-2.1,4.3-3.1c-4.7-0.1-9.2,0.2-13.9,1.3c-4.9,1.1-10.4,2.3-14.7,5
		c-0.7,0.4-1.6,0.8-2.4,0.3c-0.7-0.4-0.4-1.2,0.2-1.6c4.8-3.1,10.8-4.6,16.3-5.8c2.7-0.6,5.5-1.1,8.2-1.5c3-0.4,6.4-0.1,9.4,0.1
		c0.1,0,0.2,0,0.3,0c4.3-2.7,8.8-5.2,13.3-7.6c3.6-2,7.4-3.4,11.2-4.7c4.1-1.4,8.2-3,12.3-4.3c0.5-0.2,1-0.3,1.5-0.4
		c-2.4-2.3-6.1-3.5-9-4.6c-0.6-0.2-1.2-0.5-1.8-0.7c-0.3,0.1-0.6,0.2-0.9,0.2c-4.7-0.3-9.2,1.9-13.3,3.9c-4.2,2-7.7,5.4-11.7,7.7
		c-1.6,0.9-3.5-0.6-1.5-1.7c4.5-2.6,8.3-6.2,13.2-8.3c1.6-0.7,3.3-1.4,5-2.1c-3.7-0.2-7.3-0.1-11,0.3c-5.7,0.5-12.2,1.1-16.8,4.9
		c-1.2,1-4,0.1-2.2-1.3c4.9-4,11.4-5,17.5-5.7c4.5-0.5,8.9-0.7,13.4-0.5c-0.4-0.1-0.8-0.2-1.2-0.3c-3.5-1-7-2-10.6-2.8
		c-3.8-0.8-8-2.7-12-2c-2.3,0.4-1.5-2,0.3-2.3c3.4-0.6,8,0.3,11.2,1.4c2.1,0.7,4.1,1.1,6.3,1.5c2.3,0.5,4.4,1.4,6.7,2
		c2,0.6,4.1,0.9,6.1,1.6c2.1,0.6,4,1.7,6,2.5c3.3,1.3,7.5,2.8,9.9,5.5c2.5-0.7,5-1.2,7.5-1.8c4-0.9,8-2,12.1-2.6
		c8.3-1.2,16.7,0.2,24.7,2.2c2,0.5-0.6,2.5-1.9,2.2c-3-0.8-5.9-1.4-8.9-1.8c-0.4,0.3-0.9,0.5-1.3,0.5c-4.2,0-8.4,0.8-12,3
		c-3.5,2-6.8,4.8-9.6,7.7c-0.1,0.3-0.3,0.6-0.8,0.8c-2,2.2-3.9,4.4-5.7,6.8c3.5,8.6-1.6,17.6-6.7,24.4c-0.8,1.1-4,0.9-2.8-0.8
		c4.3-5.7,8.4-12.9,7-20c-1.8,2.8-3.6,5.6-5.4,8.4c-0.7,1.1-4.1,1.3-3.2-0.2c1.2-1.8,2.1-3.8,3.3-5.6c1.3-2,2.8-3.9,4.1-5.8
		c0-0.1,0.1-0.1,0.1-0.2c0-0.4,0.3-0.7,0.7-0.9c1.2-1.7,2.6-3.4,4-5c-3.7,1.1-7.4,2.7-10.4,5.1c-2.1,1.6-4,3.5-5.9,5.4
		c-2,2-3.2,4.4-4.9,6.6c-0.8,1.1-4,0.9-2.8-0.8c1.7-2.2,2.8-4.7,4.9-6.6c2.1-2,4.2-4,6.5-5.9c4.3-3.5,10-5.5,15.4-6.8
		c0.7-0.7,1.4-1.4,2.1-2.1c3.2-3,6.9-5.7,10.8-7.6c1-0.5,2-0.9,3.1-1.2c-1.5,0-3,0.1-4.6,0.3c-4.1,0.5-8.1,1.7-12.2,2.6
		c-2.6,0.6-5.2,1.2-7.7,1.9c-0.2,0.1-0.3,0.1-0.5,0.1c-1.1,0.3-2.3,0.6-3.4,1c-11.8,3.5-23.3,8.3-33.8,14.9
		c1.4,5.1,0.9,10.6-1.9,15.1c-3,4.7-6.9,8.3-10.7,12.3C78.5,145.5,75.2,145.3,76.7,143.8z"/>
	<g>
		<path class="st2" d="M128.6,132.7c-1,1.6-2.5,2.8-4.5,2.2c-0.6-0.2-1.1-0.6-1.4-1c-0.7,1.6-1.8,3.1-3.4,2.2
			c-1.4-0.7-1.8-2.6-1.5-4c0.2-1.1,1-1.9,1.8-2.7c-2-1.8-2.8-4.9-0.6-6.9c1.4-1.2,3.2-0.8,4.2,0.7c0.9,1.2,1.2,2.5,1.3,3.9
			c1.2-0.7,2.4-0.7,3.7,0.4C129.5,128.6,129.4,131.3,128.6,132.7z"/>
		<path class="st5" d="M123.2,131.9c-0.2,0.2-0.4,0.2-0.7,0.3c-0.4,0.1-0.8-0.1-1-0.4c-0.4-0.3-0.6-0.9-0.6-1.3c0-0.1,0-0.1,0-0.2
			c-0.1-0.6,0-1.3,0.3-1.8c0.1-0.2,0.2-0.3,0.4-0.4c0.3-0.3,0.7-0.4,1.1-0.3c0.2,0.1,0.4,0.3,0.6,0.5c0.3,0.3,0.4,0.8,0.5,1.2
			c0.1,0.5,0,1.1-0.2,1.6C123.6,131.5,123.4,131.7,123.2,131.9z"/>
	</g>
	<g>
		<path class="st2" d="M81,91.4c-1,1.6-2.5,2.8-4.5,2.2c-0.6-0.2-1.1-0.6-1.4-1c-0.7,1.6-1.8,3.1-3.4,2.2c-1.4-0.7-1.8-2.6-1.5-4
			c0.2-1.1,1-1.9,1.8-2.7c-2-1.8-2.8-4.9-0.6-6.9c1.4-1.2,3.2-0.8,4.2,0.7c0.9,1.2,1.2,2.5,1.3,3.9c1.2-0.7,2.4-0.7,3.7,0.4
			C81.9,87.4,81.8,90.1,81,91.4z"/>
		<path class="st5" d="M75.6,90.7c-0.2,0.2-0.4,0.2-0.7,0.3c-0.4,0.1-0.8-0.1-1-0.4c-0.4-0.3-0.6-0.9-0.6-1.3c0-0.1,0-0.1,0-0.2
			c-0.1-0.6,0-1.3,0.3-1.8c0.1-0.2,0.2-0.3,0.4-0.4c0.3-0.3,0.7-0.4,1.1-0.3c0.2,0.1,0.4,0.3,0.6,0.5c0.3,0.3,0.4,0.8,0.5,1.2
			c0.1,0.5,0,1.1-0.2,1.6C76,90.2,75.8,90.5,75.6,90.7z"/>
	</g>
	<g>
		<path class="st2" d="M80,149.8c-1,1.6-2.5,2.8-4.5,2.2c-0.6-0.2-1.1-0.6-1.4-1c-0.7,1.6-1.8,3.1-3.4,2.2c-1.4-0.8-1.8-2.6-1.5-4
			c0.2-1.1,1-1.9,1.8-2.7c-2-1.8-2.8-4.9-0.6-6.9c1.4-1.2,3.2-0.8,4.2,0.7c0.9,1.2,1.2,2.5,1.3,3.9c1.2-0.7,2.4-0.7,3.7,0.4
			C81,145.7,80.8,148.4,80,149.8z"/>
		<path class="st5" d="M74.7,149c-0.2,0.2-0.4,0.2-0.7,0.3c-0.4,0.1-0.8-0.1-1-0.4c-0.4-0.3-0.6-0.9-0.6-1.3c0-0.1,0-0.1,0-0.2
			c-0.1-0.6,0-1.3,0.3-1.8c0.1-0.2,0.2-0.3,0.4-0.4c0.3-0.3,0.7-0.4,1.1-0.3c0.2,0.1,0.4,0.3,0.6,0.5c0.3,0.3,0.4,0.8,0.5,1.2
			c0.1,0.5,0,1.1-0.2,1.6C75.1,148.6,74.9,148.8,74.7,149z"/>
	</g>
	<g>
		<path class="st2" d="M90.7,88.5c-1.7-0.9-2.9-2.4-2.4-4.4c0.2-0.6,0.5-1.1,1-1.4C87.7,82,86.2,81,87,79.4c0.7-1.4,2.5-1.9,3.9-1.7
			c1.1,0.2,2,0.9,2.7,1.7c1.7-2,4.9-3,6.9-0.9c1.3,1.4,0.9,3.2-0.5,4.3c-1.2,0.9-2.5,1.3-3.9,1.4c0.7,1.1,0.8,2.4-0.3,3.7
			C94.8,89.3,92.1,89.3,90.7,88.5z"/>
		<path class="st5" d="M91.3,83.1c-0.2-0.2-0.2-0.4-0.3-0.7c-0.1-0.4,0.1-0.8,0.3-1c0.3-0.4,0.9-0.6,1.3-0.7c0.1,0,0.1,0,0.2,0
			c0.6-0.1,1.3,0,1.8,0.3c0.2,0.1,0.3,0.2,0.4,0.4c0.3,0.3,0.4,0.7,0.3,1.1c-0.1,0.2-0.3,0.4-0.5,0.6c-0.3,0.3-0.8,0.4-1.2,0.5
			c-0.5,0.1-1.1,0.1-1.7-0.1C91.7,83.5,91.5,83.3,91.3,83.1z"/>
	</g>
	<g>
		<path class="st2" d="M61.6,138.5c-1.9,0.4-3.8,0.1-4.7-1.8c-0.3-0.6-0.3-1.2-0.2-1.7c-1.7,0.5-3.5,0.7-3.9-1
			c-0.4-1.5,0.6-3.1,1.9-3.8c1-0.6,2.1-0.6,3.2-0.5c0-2.7,1.7-5.4,4.6-5.1c1.9,0.2,2.8,1.8,2.4,3.6c-0.3,1.5-1,2.6-2,3.6
			c1.3,0.4,2.1,1.3,2.2,3C65.2,136.4,63.1,138.2,61.6,138.5z"/>
		<path class="st5" d="M58.5,134.1c-0.3,0-0.5-0.1-0.7-0.3c-0.3-0.2-0.4-0.7-0.4-1c0-0.5,0.3-1,0.6-1.4c0-0.1,0.1-0.1,0.1-0.1
			c0.4-0.5,0.9-0.9,1.5-1c0.2,0,0.4,0,0.6,0c0.4,0,0.8,0.2,0.9,0.7c0.1,0.2,0.1,0.5,0,0.8c0,0.4-0.3,0.9-0.5,1.2
			c-0.3,0.4-0.8,0.8-1.3,1C59.1,134,58.8,134.1,58.5,134.1z"/>
	</g>
	<g>
		<path class="st6" d="M113.7,135.8c-1.5,0.2-2.3-0.6-2.8-1.8c-1.2,1.9-3.3,3.5-5.5,2.7c-1.7-0.6-2.1-2.7-1.9-4.3
			c0.2-2,1.8-3.3,3.3-4.3c-1.6-2.8-0.4-6.6,3.1-7.4c1.8-0.4,3.6,0.5,4.2,2.2c0.3,1,0.2,1.9-0.1,2.8c1.4,0.2,2.4,0.8,3.4,2.2
			c1.1,1.6,1.2,3.2,0.5,5C117.2,134.5,115.4,135.5,113.7,135.8z"/>
		<path class="st5" d="M109.7,131.8c-1-0.2-1.5-1.4-1.5-2.3c-0.1-1.2,0.8-2.8,2.1-3.1c0,0,0.1,0,0.1-0.1c0.6-0.2,1.2-0.1,1.6,0.5
			c0.1,0.1,0.2,0.3,0.2,0.5c0,0.1,0.1,0.1,0.1,0.2c0.3,0.5,0.4,1.2,0.3,1.8C112.2,130.6,111.2,132,109.7,131.8z"/>
	</g>
	<g>
		<path class="st2" d="M61.6,115.9c-0.8,1.3-2,1.4-3.2,1c0.6,2.2,0.5,4.8-1.5,5.9c-1.6,0.9-3.4-0.1-4.6-1.3
			c-1.3-1.4-1.4-3.5-1.1-5.3c-3.2-0.6-5.3-4-3.6-7.1c0.9-1.6,2.7-2.4,4.4-1.7c1,0.4,1.6,1,2.1,1.8c1-1,2.2-1.3,3.8-1.2
			c1.9,0.2,3.2,1.2,4.1,2.8C62.9,112.4,62.6,114.3,61.6,115.9z"/>
		<path class="st5" d="M56,116.3c-0.8,0.6-2.1,0.2-2.8-0.4c-1-0.8-1.6-2.4-1-3.6c0,0,0-0.1,0-0.1c0.3-0.6,0.7-1,1.4-0.9
			c0.2,0,0.4,0.1,0.5,0.2c0.1,0,0.1,0,0.2,0c0.6,0.1,1.2,0.5,1.5,1C56.7,113.6,57.1,115.3,56,116.3z"/>
	</g>
	<g>
		<path class="st6" d="M69.3,147.3c-1.5,0.2-2.3-0.6-2.8-1.8c-1.3,1.9-3.3,3.5-5.5,2.7c-1.7-0.6-2.1-2.7-1.9-4.3
			c0.2-2,1.8-3.3,3.3-4.3c-1.6-2.8-0.4-6.6,3.1-7.4c1.8-0.4,3.6,0.5,4.2,2.2c0.3,1,0.3,1.9-0.1,2.8c1.4,0.2,2.4,0.8,3.4,2.2
			c1.1,1.6,1.1,3.2,0.5,5C72.8,146,71.1,147,69.3,147.3z"/>
		<path class="st5" d="M65.3,143.3c-1-0.2-1.5-1.4-1.5-2.3c-0.1-1.2,0.8-2.8,2.1-3.1c0,0,0.1,0,0.1-0.1c0.6-0.2,1.2-0.1,1.6,0.5
			c0.1,0.1,0.2,0.3,0.2,0.5c0,0.1,0.1,0.1,0.1,0.2c0.3,0.5,0.4,1.2,0.3,1.8C67.9,142.1,66.8,143.5,65.3,143.3z"/>
	</g>
	<g>
		<path class="st6" d="M87.1,101.4c-1.5,0.2-2.3-0.6-2.8-1.8c-1.2,1.9-3.3,3.5-5.5,2.7c-1.8-0.6-2.1-2.7-1.9-4.3
			c0.2-2,1.8-3.3,3.3-4.3c-1.6-2.8-0.4-6.6,3.1-7.4c1.8-0.4,3.6,0.5,4.2,2.2c0.3,1,0.3,1.9-0.1,2.8c1.4,0.2,2.4,0.8,3.4,2.2
			c1.1,1.6,1.2,3.2,0.5,5C90.6,100.2,88.9,101.1,87.1,101.4z"/>
		<path class="st5" d="M83.2,97.4c-1-0.2-1.5-1.4-1.5-2.3c-0.1-1.2,0.8-2.8,2.1-3.1c0,0,0.1,0,0.1,0c0.6-0.2,1.2-0.1,1.6,0.5
			c0.1,0.1,0.2,0.3,0.2,0.5c0,0.1,0.1,0.1,0.1,0.2c0.3,0.5,0.4,1.2,0.3,1.8C85.7,96.2,84.6,97.7,83.2,97.4z"/>
	</g>
	<g>
		<path class="st2" d="M106.7,144.4c-2-1.7-1.4-4.4,0.3-5.7c-1.9-1.1-4-3.2-2.3-4.6c2.3-1.9,5.6-0.8,7,1.5c2.1-1.4,5.2-1,6.3,1.9
			c0.6,1.4-0.5,3.2-1.6,4c-0.9,0.6-2,0.6-3,0.3c-0.2,1.1-0.9,2.1-1.8,2.7C110,145.6,108.3,145.6,106.7,144.4z"/>
		<path class="st5" d="M108.9,140.7c-0.6-0.4-0.8-1.1-0.6-1.7c0-0.1,0.1-0.2,0.2-0.3c0.2-1.3,2.1-1.6,3.2-1.3
			c0.6,0.2,1.1,0.6,1.2,1.3c0.2,0.9-0.5,1.6-1.3,2C110.8,141.1,109.8,141.2,108.9,140.7z"/>
	</g>
	<g>
		<path class="st6" d="M71.4,105.5c-2-1.7-1.4-4.3,0.3-5.7c-1.9-1.1-4-3.2-2.3-4.6c2.3-1.9,5.6-0.8,7,1.5c2.1-1.4,5.2-1,6.3,1.9
			c0.6,1.4-0.5,3.2-1.6,4c-0.9,0.6-2,0.6-3,0.3c-0.2,1.1-0.9,2.1-1.8,2.7C74.7,106.7,72.9,106.8,71.4,105.5z"/>
		<path class="st5" d="M73.6,101.8c-0.6-0.4-0.8-1.1-0.6-1.7c0-0.1,0.1-0.2,0.2-0.3c0.2-1.3,2.1-1.6,3.2-1.3
			c0.6,0.2,1.1,0.6,1.2,1.3c0.2,0.9-0.5,1.6-1.3,2C75.5,102.2,74.4,102.3,73.6,101.8z"/>
	</g>
	<g>
		<path class="st2" d="M40.1,129.3c1.3-2.3,4-2.2,5.6-0.8c0.8-2,2.4-4.5,4.1-3.1c2.3,1.9,1.8,5.3-0.2,7.2c1.8,1.8,1.9,4.9-0.7,6.6
			c-1.3,0.8-3.2,0.1-4.2-0.9c-0.8-0.8-1-1.8-0.9-2.9c-1.1,0-2.2-0.5-3-1.2C39.5,132.8,39.2,131,40.1,129.3z"/>
		<path class="st5" d="M44.1,130.8c0.2-0.7,0.9-1,1.6-0.9c0.1,0,0.2,0.1,0.3,0.1c1.3,0,2,1.8,1.8,2.9c-0.1,0.7-0.4,1.2-1.1,1.4
			c-0.9,0.3-1.7-0.2-2.2-0.9C44.1,132.7,43.8,131.7,44.1,130.8z"/>
	</g>
	<g>
		<path class="st2" d="M55.5,153.6c-2-1.7-1.4-4.3,0.3-5.7c-1.9-1.1-4-3.2-2.3-4.6c2.3-1.9,5.6-0.8,7,1.5c2.1-1.4,5.2-1,6.3,1.9
			c0.6,1.4-0.5,3.2-1.6,4c-0.9,0.6-2,0.6-3,0.3c-0.2,1.1-0.9,2.1-1.8,2.7C58.9,154.9,57.1,154.9,55.5,153.6z"/>
		<path class="st5" d="M57.7,150c-0.6-0.4-0.8-1.1-0.6-1.7c0-0.1,0.1-0.2,0.2-0.3c0.2-1.3,2.1-1.6,3.2-1.3c0.6,0.2,1.1,0.6,1.2,1.3
			c0.2,0.9-0.5,1.6-1.3,2C59.6,150.4,58.6,150.5,57.7,150z"/>
	</g>
	<g>
		<path class="st2" d="M94,108c-2-1.7-1.4-4.4,0.3-5.7c-1.9-1.1-4-3.2-2.3-4.6c2.3-1.9,5.6-0.8,7,1.5c2.1-1.4,5.2-1,6.3,1.9
			c0.6,1.4-0.5,3.2-1.6,4c-0.9,0.6-2,0.6-3,0.3c-0.2,1.1-0.9,2.1-1.8,2.7C97.3,109.2,95.6,109.2,94,108z"/>
		<path class="st5" d="M96.2,104.3c-0.6-0.4-0.8-1.1-0.6-1.7c0-0.1,0.1-0.2,0.2-0.3c0.2-1.3,2.1-1.6,3.2-1.3
			c0.6,0.2,1.1,0.6,1.2,1.3c0.2,0.9-0.5,1.6-1.3,2C98.1,104.7,97,104.8,96.2,104.3z"/>
	</g>
	<g>
		<path class="st6" d="M125.6,145c-2.1-1.6-1.9-4.2-0.2-5.5c0,0,0,0,0,0c-0.4-0.1-0.8-0.4-1.1-0.7c-0.8-0.5-1.6-1.1-2-2
			c-0.5-1.1,0.7-2.2,1.5-2.6c2.3-1.2,3.9-0.2,5,1.6c1.8-1.1,4.4-0.8,5.8,1.2c1.2,1.7,0.4,3.7-1.1,4.8c-0.8,0.6-1.7,0.7-2.5,0.5
			c0.1,1-0.2,1.9-1.1,2.6C128.5,145.9,126.9,146,125.6,145z"/>
		<path class="st5" d="M127.4,141.5c-0.4-0.4-0.7-1.1-0.7-1.7c0,0,0-0.1,0-0.1c0-0.2,0-0.3,0.1-0.5c0.4-1.3,1.7-1.8,3-1.8
			c0.6,0,1.2,0.3,1.4,0.9c0.1,0.2,0.1,0.5,0.1,0.8c0.1,0.7-0.2,1.6-0.6,2C129.8,142,128.3,142.4,127.4,141.5z"/>
	</g>
	<g>
		<path class="st6" d="M38.8,117.2c1.9-1.8,4.5-1.2,5.5,0.7c0,0,0,0,0,0c0.2-0.4,0.5-0.7,0.9-0.9c0.7-0.7,1.3-1.4,2.3-1.7
			c1.1-0.3,2,1.1,2.3,1.9c0.8,2.4-0.5,3.9-2.4,4.7c0.8,1.9,0,4.5-2.1,5.5c-1.9,0.9-3.7-0.2-4.6-1.9c-0.5-0.9-0.4-1.8-0.1-2.6
			c-1-0.1-1.8-0.5-2.4-1.5C37.4,119.9,37.6,118.3,38.8,117.2z"/>
		<path class="st5" d="M41.9,119.5c0.5-0.4,1.2-0.5,1.8-0.4c0,0,0.1,0,0.1,0c0.2,0,0.3,0.1,0.4,0.1c1.2,0.6,1.5,2,1.3,3.3
			c-0.1,0.6-0.5,1.1-1.1,1.2c-0.2,0.1-0.5,0-0.8-0.1c-0.7,0-1.5-0.4-1.9-1C41,121.8,40.9,120.3,41.9,119.5z"/>
	</g>
	<g>
		<path class="st6" d="M49.8,130.8c-2.1-1.6-1.9-4.2-0.2-5.5c0,0,0,0,0,0c-0.4-0.1-0.8-0.4-1.1-0.7c-0.8-0.5-1.6-1.1-2-2
			c-0.5-1.1,0.7-2.2,1.5-2.6c2.3-1.2,3.9-0.2,5,1.6c1.8-1.1,4.4-0.8,5.8,1.2c1.2,1.7,0.4,3.7-1.1,4.8c-0.8,0.6-1.7,0.7-2.5,0.6
			c0.1,1-0.2,1.9-1.1,2.6C52.7,131.7,51.1,131.8,49.8,130.8z"/>
		<path class="st5" d="M51.5,127.4c-0.4-0.4-0.7-1-0.7-1.7c0,0,0,0,0-0.1c0-0.2,0-0.3,0.1-0.5c0.4-1.3,1.7-1.8,3-1.8
			c0.6,0,1.2,0.3,1.4,0.9c0.1,0.2,0.1,0.5,0.1,0.8c0.1,0.7-0.2,1.6-0.6,2C53.9,127.9,52.5,128.2,51.5,127.4z"/>
	</g>
	<g>
		<path class="st6" d="M60.7,156.5c-0.4-2.6,1.5-4.4,3.6-4.2c0,0,0,0,0-0.1c-0.2-0.4-0.3-0.8-0.3-1.2c-0.2-0.9-0.4-1.9-0.1-2.8
			c0.3-1.1,2-1.1,2.9-0.8c2.5,0.7,2.9,2.5,2.6,4.6c2,0.4,3.7,2.5,3.4,4.8c-0.3,2-2.2,3-4.1,2.8c-1-0.1-1.7-0.6-2.2-1.3
			c-0.6,0.7-1.4,1.2-2.6,1.1C62.2,159.1,61,158.1,60.7,156.5z"/>
		<path class="st5" d="M64.4,155.1c0-0.6,0.2-1.2,0.6-1.7c0,0,0,0,0.1-0.1c0.1-0.1,0.2-0.2,0.4-0.3c1.2-0.7,2.5-0.1,3.4,0.7
			c0.5,0.4,0.7,1,0.4,1.6c-0.1,0.2-0.3,0.5-0.5,0.6c-0.4,0.6-1.2,1-1.8,1C65.8,157.1,64.5,156.4,64.4,155.1z"/>
	</g>
	<g>
		<path class="st2" d="M79.7,144.6c0-1.8,0.8-2.9,2.2-3.7c-0.8-0.8-1.4-1.6-1.7-2.7c-0.4-1.3,0.6-2.9,1.9-3c1.5-0.2,3.6,1.3,4.4,2.9
			c0.4-0.1,0.9-0.2,1.5-0.1c1.9,0.2,3.5,1.3,3.9,3.2c0.4,1.8-1.7,3.5-3.2,3.8c-0.6,0.1-1.2,0.1-1.7-0.1c-0.4,1.9-2.4,3.5-4.6,3.1
			C80.6,147.7,79.7,146.4,79.7,144.6z"/>
		<path class="st5" d="M82.9,140.3c0.5-0.9,1.7-1.1,2.6-0.9c0.8,0.2,1.8,0.8,1.9,1.7c0,0.2,0,0.4-0.1,0.6c-0.1,0.5-0.5,0.9-0.9,1.2
			c-0.9,0.5-2.1,0.3-2.9-0.3C82.8,142,82.4,141.2,82.9,140.3z"/>
	</g>
	<g>
		<path class="st2" d="M80.2,107.5c0-1.8,0.8-2.9,2.2-3.7c-0.8-0.8-1.4-1.6-1.7-2.7c-0.4-1.3,0.6-2.9,1.9-3c1.5-0.2,3.6,1.3,4.4,2.9
			c0.4-0.1,0.9-0.2,1.5-0.1c1.9,0.2,3.5,1.3,3.9,3.2c0.4,1.8-1.7,3.5-3.2,3.8c-0.6,0.1-1.2,0.1-1.7-0.1c-0.4,1.9-2.4,3.5-4.6,3.1
			C81,110.6,80.2,109.3,80.2,107.5z"/>
		<path class="st5" d="M83.3,103.2c0.5-0.9,1.7-1.1,2.6-0.9c0.8,0.2,1.8,0.8,1.9,1.7c0,0.2,0,0.4-0.1,0.5c-0.1,0.5-0.5,0.9-0.9,1.2
			c-0.9,0.5-2.1,0.3-2.9-0.3C83.3,104.9,82.9,104,83.3,103.2z"/>
	</g>
	<g>
		<path class="st6" d="M113.6,147.3c-1.8-0.1-3.8-0.9-3.8-2.6c0-1.3,1.6-2.4,2.7-2.5c1.4-0.2,2.6,0.3,3.8,0.7c0.2-1.5,0.9-3,2.2-3.8
			c2-1.2,3.8-0.1,5.2,1.5c1.7,1.8,1.2,3.6-0.6,4.9c-0.7,0.5-1.4,0.9-2.2,1c0.4,0.7,0.7,1.5,0.7,2.4c0.1,1.8-1.9,3.4-3.6,3.2
			C115.8,152,112.8,149.5,113.6,147.3z"/>
		<path class="st5" d="M115,147.1c-0.2-0.5-0.2-1.1,0-1.6c0.1-0.2,0.2-0.4,0.3-0.6c0.2-0.4,0.6-0.6,0.9-0.8c0.9-0.5,2.5-0.5,3,0.4
			c0.8,0.8,0.3,2.2-0.5,2.9C117.6,148.2,115.7,148.4,115,147.1z"/>
	</g>
	<g>
		<path class="st6" d="M75.8,154.9c-1.8-0.1-3.8-0.9-3.8-2.6c0-1.3,1.6-2.4,2.7-2.5c1.4-0.2,2.6,0.3,3.8,0.7c0.2-1.5,0.9-3,2.2-3.8
			c2-1.2,3.8-0.1,5.2,1.5c1.7,1.8,1.2,3.6-0.6,4.9c-0.7,0.5-1.4,0.9-2.2,1c0.4,0.7,0.7,1.5,0.7,2.4c0.1,1.8-1.9,3.4-3.6,3.2
			C78,159.6,75,157.1,75.8,154.9z"/>
		<path class="st5" d="M77.1,154.7c-0.3-0.5-0.2-1.1,0-1.6c0.1-0.2,0.2-0.4,0.3-0.5c0.2-0.4,0.6-0.6,0.9-0.8c0.9-0.5,2.5-0.5,3,0.4
			c0.8,0.8,0.3,2.2-0.5,2.9C79.8,155.8,77.9,156,77.1,154.7z"/>
	</g>
	<g>
		<path class="st6" d="M48.1,142.2c-1.8-0.1-3.8-0.9-3.8-2.6c0-1.3,1.6-2.4,2.7-2.5c1.4-0.2,2.6,0.3,3.8,0.7c0.2-1.5,0.9-3,2.2-3.8
			c2-1.2,3.8-0.1,5.2,1.5c1.7,1.8,1.2,3.6-0.6,4.9c-0.7,0.5-1.4,0.9-2.2,1c0.4,0.7,0.7,1.5,0.7,2.4c0,1.8-1.9,3.4-3.6,3.2
			C50.3,146.9,47.3,144.4,48.1,142.2z"/>
		<path class="st5" d="M49.4,141.9c-0.2-0.5-0.2-1.1,0-1.6c0.1-0.2,0.2-0.4,0.3-0.6c0.2-0.4,0.6-0.7,0.9-0.8c0.9-0.5,2.5-0.5,3,0.4
			c0.8,0.8,0.3,2.2-0.5,2.9C52.1,143.1,50.2,143.3,49.4,141.9z"/>
	</g>
	<g>
		<path class="st6" d="M60.2,121.5c-1.8-0.1-3.8-0.9-3.8-2.6c0-1.3,1.6-2.4,2.7-2.5c1.4-0.2,2.6,0.3,3.8,0.7c0.2-1.5,0.9-3,2.2-3.8
			c2-1.2,3.8-0.1,5.2,1.5c1.7,1.8,1.2,3.6-0.6,4.9c-0.7,0.5-1.4,0.9-2.2,1c0.4,0.7,0.7,1.5,0.7,2.4c0.1,1.8-1.9,3.4-3.6,3.2
			C62.4,126.2,59.5,123.7,60.2,121.5z"/>
		<path class="st5" d="M61.6,121.2c-0.2-0.5-0.2-1.1,0-1.6c0.1-0.2,0.2-0.4,0.3-0.6c0.2-0.4,0.6-0.6,0.9-0.8c0.9-0.5,2.5-0.5,3,0.4
			c0.8,0.8,0.3,2.2-0.5,2.9C64.2,122.4,62.3,122.6,61.6,121.2z"/>
	</g>
	<g>
		<path class="st6" d="M79.7,84.3c-1.8-0.1-3.8-0.9-3.8-2.6c0-1.3,1.6-2.4,2.7-2.5c1.4-0.2,2.6,0.3,3.8,0.7c0.2-1.5,0.9-3,2.2-3.8
			c2-1.2,3.8-0.1,5.2,1.5c1.7,1.8,1.2,3.6-0.6,4.9c-0.7,0.5-1.4,0.9-2.2,1c0.4,0.7,0.7,1.5,0.7,2.4c0.1,1.8-1.9,3.4-3.6,3.2
			C81.9,89.1,78.9,86.5,79.7,84.3z"/>
		<path class="st5" d="M81,84.1c-0.2-0.5-0.2-1.1,0-1.6c0.1-0.2,0.2-0.4,0.3-0.5c0.2-0.4,0.6-0.7,0.9-0.8c0.9-0.5,2.5-0.5,3,0.4
			c0.8,0.8,0.3,2.2-0.5,2.9C83.7,85.2,81.8,85.4,81,84.1z"/>
	</g>
	<path class="st3" d="M109.3,100.3c-1.5-1.3-0.5-3.3,0.5-4.6c1.2-1.7,3.2-2.6,5.2-3c-1.2-1.8-2.2-3.6-2.2-5.9c0-1.9,0.8-4,2.8-4.6
		c1.8-0.5,3.9,0.4,4.1,2.4c0.2,2.9-2.2,5.3-1.9,8.1c0,0,0,0.1,0,0.1c0,0.3-0.1,0.5-0.4,0.8c-0.6,2.1-1.6,4.3-3.2,5.9
		C113,100.5,110.8,101.6,109.3,100.3z"/>
	<path class="st3" d="M136.9,116.4c-0.8-1.7-0.5-4,0.2-6c0-0.1,0-0.2,0-0.4c0-0.3,0.2-0.5,0.4-0.7c0-0.1,0-0.1,0.1-0.2
		c-2,0.1-4,0.1-5.8-0.7c-1.4-0.6-4-2.6-1.9-4.1c1.4-1.1,3.7-0.8,5.3-0.1c1.2,0.5,2.2,1.3,3.3,2c0.8,0.5,1.1,0.7,1.4,1.3
		c0.1,0,0.2,0.1,0.3,0.2c0.1,0.1,0.2,0.2,0.2,0.3c1.3,1.8,2,3.7,2.2,5.9c0.1,1.4,0,3.4-1.5,4.1C139.4,118.9,137.8,118.1,136.9,116.4
		z"/>
	<path class="st3" d="M89.6,123.2c-1.4-2.3,0.6-4.8,1.9-6.7c-1-0.1-2-0.3-3-0.2c-1.2,0.1-2.3,0.3-3.5,0.3c-1.3-0.1-3.5-1.2-2.7-2.8
		c1.9-3.8,8.3-0.1,10.8,0.6c0,0,0,0,0.1,0c0,0,0.1,0,0.1,0c0.2,0.1,0.3,0.2,0.3,0.3c0,0,0,0,0.1,0.1c0.4-0.1,0.8,0,1,0.5
		c0.9,2.3,1.9,7.2-0.7,8.8C92.6,125,90.5,124.7,89.6,123.2z"/>
	<path class="st3" d="M158.1,100.6c-1.9-1.2,0.2-3.1,1.4-3.7c1.1-0.6,2.4-0.9,3.7-1.1c-1-0.7-2-1.5-2.9-2.3
		c-0.9-0.8-2.4-2.2-1.1-3.3c1.6-1.4,4-0.5,5.3,0.7c1.6,1.4,2.9,3.1,2.5,5.3c0.1,0.2,0,0.4-0.2,0.5c-0.1,0.1-0.2,0.2-0.3,0.3
		c-1.1,1-2.3,2.1-3.5,3C161.9,100.7,159.4,101.5,158.1,100.6z"/>
</g>
<g>
	<path class="st4" d="M352.7,44.2c-3.9,4-8.5,7.9-11.4,12.7c-1.8,2.9-3.1,5.2-3.4,8.7c-0.2,2.3,0,4.9,0.5,7.2
		c1.7-1.1,3.3-2.2,4.9-3.4c0,0,0,0,0,0c1.6-2.5,2.5-5.3,4.3-7.7c1.9-2.7,4-5.1,6.5-7.2c4.5-3.7,9.4-7.1,15.3-7.8
		c2.7-0.3,1.8,2.4-0.3,2.6c-5.1,0.6-9.4,4.2-13.2,7.4c-2,1.7-3.9,4.2-5.3,6.4c-0.2,0.3-0.4,0.6-0.5,0.9c0.5-0.4,1-0.7,1.5-1
		c2.9-1.8,6.3-2.9,9.6-3.9c3-0.9,6.1-1.6,9.2-2.2c3.1-0.5,6.1-1.6,9.1-2.2c2.6-0.6,1.7,2.2-0.3,2.6c-2.4,0.5-4.8,1.3-7.2,1.8
		c-3.1,0.6-6.1,1.1-9.1,2c-3,0.9-6,1.8-8.8,3.3c-2.1,1.1-3.7,2.9-5.5,4.4c-0.1,0.2-0.3,0.3-0.5,0.5c-1.6,1.2-3.3,2.4-5,3.6
		c5.5,0.1,10.8-0.2,16.2-1.5c5.7-1.3,12.1-2.7,17.1-5.8c0.8-0.5,1.9-0.9,2.8-0.4c0.8,0.5,0.5,1.4-0.2,1.9
		c-5.6,3.6-12.5,5.3-18.9,6.8c-3.2,0.7-6.4,1.3-9.6,1.8c-3.5,0.5-7.4,0.1-11-0.1c-0.1,0-0.2,0-0.3,0c-5,3.2-10.3,6-15.5,8.9
		c-4.1,2.3-8.6,3.9-13.1,5.5c-4.8,1.6-9.5,3.5-14.3,5c-0.6,0.2-1.2,0.3-1.8,0.5c2.8,2.6,7.1,4,10.4,5.4c0.7,0.3,1.4,0.6,2,0.9
		c0.3-0.2,0.7-0.2,1.1-0.2c5.4,0.4,10.7-2.3,15.5-4.5c4.9-2.3,8.9-6.2,13.6-8.9c1.8-1,4,0.7,1.7,2c-5.3,3-9.7,7.2-15.3,9.7
		c-1.9,0.8-3.8,1.7-5.8,2.4c4.2,0.2,8.5,0.1,12.8-0.3c6.6-0.6,14.2-1.3,19.5-5.7c1.4-1.1,4.6-0.2,2.6,1.5
		c-5.7,4.7-13.2,5.8-20.3,6.6c-5.3,0.6-10.4,0.8-15.6,0.6c0.5,0.1,0.9,0.2,1.4,0.3c4.1,1.1,8.1,2.3,12.3,3.2c4.4,1,9.3,3.1,13.9,2.4
		c2.6-0.4,1.7,2.3-0.3,2.6c-3.9,0.6-9.3-0.3-13.1-1.6c-2.4-0.8-4.8-1.3-7.3-1.8c-2.6-0.6-5.2-1.6-7.7-2.3c-2.3-0.7-4.8-1.1-7.1-1.8
		c-2.4-0.7-4.7-2-7-2.9c-3.8-1.6-8.7-3.2-11.5-6.4c-2.9,0.8-5.8,1.5-8.7,2.1c-4.7,1-9.4,2.3-14.1,3c-9.6,1.3-19.4-0.2-28.7-2.6
		c-2.3-0.6,0.6-2.9,2.2-2.5c3.5,0.9,6.9,1.6,10.4,2.1c0.5-0.3,1-0.6,1.5-0.6c4.9,0,9.7-1,14-3.5c4.1-2.4,7.9-5.6,11.2-9
		c0.1-0.4,0.4-0.7,0.9-1c2.4-2.5,4.5-5.2,6.6-7.9c-4.1-9.9,1.8-20.4,7.8-28.4c1-1.3,4.7-1,3.2,0.9c-5,6.6-9.8,15-8.1,23.3
		c2.1-3.2,4.1-6.5,6.2-9.8c0.8-1.3,4.8-1.5,3.7,0.2c-1.3,2.1-2.4,4.4-3.8,6.5c-1.5,2.3-3.2,4.5-4.8,6.8c-0.1,0.1-0.1,0.1-0.2,0.2
		c0,0.4-0.3,0.8-0.8,1.1c-1.4,2-3,3.9-4.6,5.8c4.3-1.3,8.6-3.1,12.1-5.9c2.4-1.9,4.7-4.1,6.9-6.2c2.3-2.3,3.7-5.1,5.7-7.7
		c1-1.3,4.7-1.1,3.2,0.9c-1.9,2.6-3.3,5.5-5.6,7.7c-2.5,2.4-4.9,4.7-7.6,6.9c-5,4.1-11.6,6.4-17.9,7.9c-0.8,0.8-1.6,1.6-2.5,2.4
		c-3.7,3.5-8,6.6-12.6,8.9c-1.1,0.5-2.3,1-3.6,1.4c1.8,0,3.5-0.2,5.3-0.4c4.8-0.6,9.5-1.9,14.1-3c3-0.7,6-1.4,9-2.2
		c0.2-0.1,0.4-0.1,0.6-0.2c1.3-0.4,2.6-0.7,3.9-1.1c13.7-4.1,27.1-9.7,39.3-17.3c-1.7-6-1.1-12.3,2.2-17.5c3.4-5.4,8-9.7,12.4-14.3
		C350.6,42.2,354.4,42.5,352.7,44.2z"/>
	<g>
		<path class="st2" d="M292.3,57.2c1.1-1.9,2.9-3.3,5.2-2.6c0.7,0.2,1.2,0.7,1.6,1.2c0.8-1.9,2.1-3.6,3.9-2.6c1.6,0.9,2.2,3,1.8,4.6
			c-0.3,1.3-1.1,2.3-2.1,3.1c2.3,2.1,3.3,5.7,0.8,8c-1.6,1.5-3.7,1-4.9-0.8c-1-1.4-1.4-2.9-1.5-4.5c-1.4,0.8-2.8,0.8-4.3-0.5
			C291.3,61.8,291.4,58.7,292.3,57.2z"/>
		<path class="st5" d="M298.5,58c0.2-0.2,0.5-0.3,0.8-0.3c0.4-0.1,0.9,0.2,1.2,0.4c0.4,0.4,0.7,1,0.7,1.6c0,0.1,0,0.2,0,0.2
			c0.1,0.7,0,1.5-0.4,2.1c-0.1,0.2-0.3,0.3-0.5,0.5c-0.3,0.3-0.8,0.5-1.3,0.3c-0.3-0.1-0.5-0.3-0.7-0.6c-0.3-0.4-0.5-0.9-0.6-1.4
			c-0.1-0.6,0-1.3,0.2-1.9C298.1,58.5,298.3,58.2,298.5,58z"/>
	</g>
	<g>
		<path class="st2" d="M347.7,105.1c1.1-1.9,2.9-3.3,5.2-2.6c0.7,0.2,1.2,0.7,1.6,1.2c0.8-1.9,2.1-3.6,3.9-2.6
			c1.6,0.9,2.1,3,1.8,4.6c-0.3,1.3-1.1,2.3-2.1,3.1c2.3,2.1,3.3,5.7,0.8,8c-1.6,1.4-3.7,1-4.9-0.8c-1-1.4-1.4-2.9-1.5-4.5
			c-1.4,0.8-2.8,0.8-4.3-0.5C346.7,109.8,346.8,106.7,347.7,105.1z"/>
		<path class="st5" d="M353.9,106c0.2-0.2,0.5-0.3,0.8-0.3c0.4-0.1,0.9,0.2,1.2,0.4c0.4,0.4,0.7,1,0.7,1.6c0,0.1,0,0.2,0,0.2
			c0.1,0.7,0,1.5-0.4,2.1c-0.1,0.2-0.3,0.3-0.5,0.5c-0.3,0.3-0.8,0.5-1.3,0.3c-0.3-0.1-0.5-0.3-0.7-0.6c-0.3-0.4-0.5-0.9-0.6-1.4
			c-0.1-0.6,0-1.3,0.2-1.9C353.5,106.5,353.7,106.2,353.9,106z"/>
	</g>
	<g>
		<path class="st2" d="M348.8,37.3c1.1-1.9,2.9-3.3,5.2-2.6c0.7,0.2,1.2,0.6,1.6,1.2c0.8-1.9,2.1-3.6,3.9-2.6c1.6,0.9,2.1,3,1.8,4.6
			c-0.3,1.3-1.1,2.3-2.1,3.1c2.3,2.1,3.3,5.7,0.8,8c-1.6,1.4-3.7,1-4.9-0.8c-1-1.4-1.4-2.9-1.5-4.5c-1.4,0.8-2.8,0.8-4.3-0.5
			C347.7,42,347.9,38.8,348.8,37.3z"/>
		<path class="st5" d="M355,38.1c0.2-0.2,0.5-0.3,0.8-0.3c0.4-0.1,0.9,0.2,1.2,0.4c0.4,0.4,0.7,1,0.7,1.6c0,0.1,0,0.2,0,0.2
			c0.1,0.7,0,1.5-0.4,2.1c-0.1,0.2-0.3,0.3-0.5,0.5c-0.3,0.3-0.8,0.5-1.3,0.3c-0.3-0.1-0.5-0.3-0.7-0.6c-0.3-0.4-0.5-0.9-0.6-1.4
			c-0.1-0.6,0-1.3,0.2-1.9C354.6,38.6,354.8,38.4,355,38.1z"/>
	</g>
	<g>
		<path class="st2" d="M336.4,108.5c1.9,1.1,3.4,2.8,2.8,5.1c-0.2,0.7-0.6,1.2-1.2,1.6c1.9,0.8,3.6,2,2.7,3.9
			c-0.8,1.6-2.9,2.2-4.6,1.9c-1.3-0.2-2.3-1.1-3.2-2c-2,2.4-5.6,3.5-8,1c-1.5-1.6-1.1-3.7,0.6-4.9c1.4-1,2.9-1.5,4.5-1.7
			c-0.8-1.3-0.9-2.8,0.3-4.3C331.7,107.6,334.8,107.6,336.4,108.5z"/>
		<path class="st5" d="M335.7,114.7c0.3,0.2,0.3,0.5,0.4,0.8c0.1,0.4-0.1,0.9-0.4,1.2c-0.4,0.4-1,0.7-1.5,0.8c-0.1,0-0.2,0-0.2,0
			c-0.7,0.2-1.5,0.1-2.1-0.3c-0.2-0.1-0.4-0.3-0.5-0.4c-0.3-0.3-0.5-0.8-0.3-1.3c0.1-0.3,0.3-0.5,0.6-0.7c0.4-0.4,0.9-0.5,1.4-0.6
			c0.6-0.1,1.3-0.1,1.9,0.1C335.2,114.3,335.5,114.5,335.7,114.7z"/>
	</g>
	<g>
		<path class="st2" d="M370.2,50.3c2.2-0.5,4.4-0.1,5.4,2.1c0.3,0.7,0.4,1.3,0.2,2c1.9-0.6,4.1-0.9,4.6,1.1c0.4,1.8-0.7,3.6-2.2,4.4
			c-1.1,0.7-2.4,0.7-3.7,0.5c0.1,3.1-2,6.3-5.4,6c-2.2-0.2-3.2-2.1-2.8-4.1c0.4-1.7,1.2-3,2.3-4.2c-1.5-0.5-2.5-1.5-2.6-3.4
			C366,52.7,368.4,50.7,370.2,50.3z"/>
		<path class="st5" d="M373.8,55.5c0.3,0,0.5,0.2,0.8,0.4c0.3,0.3,0.5,0.8,0.5,1.2c0,0.6-0.3,1.2-0.7,1.6c-0.1,0.1-0.1,0.1-0.2,0.2
			c-0.4,0.6-1.1,1-1.8,1.1c-0.2,0-0.4,0-0.7,0c-0.5,0-0.9-0.3-1.1-0.8c-0.1-0.3-0.1-0.6,0-0.9c0-0.5,0.4-1,0.6-1.4
			c0.4-0.5,1-0.9,1.5-1.2C373.1,55.5,373.5,55.5,373.8,55.5z"/>
	</g>
	<g>
		<path class="st6" d="M309.7,53.5c1.8-0.3,2.7,0.7,3.3,2.1c1.5-2.2,3.8-4,6.4-3.1c2,0.8,2.5,3.2,2.3,5c-0.3,2.3-2,3.8-3.9,5
			c1.9,3.2,0.4,7.7-3.5,8.6c-2.1,0.5-4.2-0.6-4.9-2.6c-0.4-1.1-0.3-2.2,0.1-3.2c-1.6-0.2-2.8-0.9-3.9-2.5c-1.3-1.8-1.3-3.7-0.6-5.8
			C305.6,55,307.6,53.9,309.7,53.5z"/>
		<path class="st5" d="M314.3,58.2c1.2,0.2,1.7,1.7,1.8,2.7c0.1,1.5-0.9,3.2-2.4,3.6c0,0-0.1,0-0.1,0.1c-0.7,0.2-1.4,0.1-1.8-0.6
			c-0.1-0.2-0.2-0.4-0.2-0.6c0-0.1-0.1-0.1-0.1-0.2c-0.3-0.6-0.4-1.4-0.3-2.1C311.3,59.6,312.6,57.9,314.3,58.2z"/>
	</g>
	<g>
		<path class="st2" d="M370.2,76.7c0.9-1.5,2.3-1.6,3.7-1.2c-0.7-2.5-0.6-5.5,1.8-6.9c1.9-1.1,4,0.2,5.3,1.6c1.6,1.7,1.6,4,1.3,6.2
			c3.7,0.7,6.1,4.7,4.2,8.3c-1,1.9-3.2,2.8-5.1,2c-1.1-0.4-1.9-1.2-2.4-2.1c-1.2,1.1-2.5,1.6-4.4,1.4c-2.2-0.2-3.7-1.4-4.8-3.3
			C368.7,80.7,369.1,78.5,370.2,76.7z"/>
		<path class="st5" d="M376.7,76.2c0.9-0.8,2.4-0.2,3.2,0.4c1.2,0.9,1.9,2.8,1.2,4.1c0,0,0,0.1,0,0.2c-0.3,0.7-0.8,1.1-1.6,1
			c-0.2,0-0.4-0.1-0.6-0.2c-0.1,0-0.2,0-0.2-0.1c-0.7-0.2-1.4-0.6-1.8-1.1C375.9,79.3,375.4,77.3,376.7,76.2z"/>
	</g>
	<g>
		<path class="st6" d="M361.3,40.2c1.8-0.3,2.7,0.7,3.3,2.1c1.5-2.2,3.8-4,6.4-3.1c2,0.8,2.5,3.2,2.3,5c-0.3,2.3-2,3.8-3.9,5
			c1.9,3.2,0.4,7.7-3.6,8.6c-2.1,0.5-4.2-0.6-4.9-2.6c-0.4-1.1-0.3-2.2,0.1-3.2c-1.6-0.2-2.8-0.9-3.9-2.5c-1.3-1.8-1.3-3.7-0.6-5.8
			C357.2,41.6,359.2,40.5,361.3,40.2z"/>
		<path class="st5" d="M365.9,44.8c1.2,0.2,1.7,1.7,1.8,2.7c0.1,1.5-0.9,3.2-2.4,3.6c0,0-0.1,0-0.1,0.1c-0.7,0.2-1.4,0.1-1.8-0.5
			c-0.1-0.2-0.2-0.4-0.2-0.6c0-0.1-0.1-0.1-0.1-0.2c-0.3-0.6-0.4-1.4-0.3-2.1C362.9,46.2,364.2,44.5,365.9,44.8z"/>
	</g>
	<g>
		<path class="st6" d="M340.5,93.5c1.8-0.3,2.7,0.7,3.3,2.1c1.5-2.2,3.8-4,6.4-3.1c2,0.8,2.5,3.2,2.3,5c-0.3,2.3-2,3.8-3.9,5
			c1.9,3.2,0.4,7.7-3.5,8.6c-2.1,0.5-4.2-0.6-4.9-2.6c-0.4-1.1-0.3-2.2,0.1-3.2c-1.6-0.2-2.8-0.9-3.9-2.5c-1.3-1.8-1.3-3.7-0.6-5.8
			C336.5,94.9,338.5,93.8,340.5,93.5z"/>
		<path class="st5" d="M345.1,98.1c1.2,0.2,1.7,1.7,1.8,2.7c0.1,1.5-0.9,3.2-2.4,3.6c-0.1,0-0.1,0-0.1,0.1c-0.7,0.3-1.4,0.1-1.8-0.6
			c-0.1-0.2-0.2-0.4-0.2-0.6c0-0.1-0.1-0.1-0.1-0.2c-0.3-0.6-0.4-1.4-0.3-2.1C342.2,99.6,343.4,97.8,345.1,98.1z"/>
	</g>
	<g>
		<path class="st2" d="M317.7,43.5c2.4,1.9,1.7,5.1-0.3,6.6c2.2,1.3,4.6,3.7,2.7,5.4c-2.7,2.3-6.5,1-8.2-1.7c-2.5,1.7-6,1.1-7.4-2.2
			c-0.7-1.7,0.6-3.7,1.9-4.6c1-0.7,2.3-0.7,3.5-0.4c0.3-1.2,1-2.4,2.1-3.2C313.9,42.1,315.9,42,317.7,43.5z"/>
		<path class="st5" d="M315.2,47.8c0.7,0.4,1,1.2,0.6,2c0,0.1-0.1,0.2-0.2,0.3c-0.2,1.5-2.4,1.9-3.7,1.5c-0.7-0.2-1.3-0.8-1.4-1.5
			c-0.2-1,0.6-1.9,1.5-2.3C313,47.3,314.2,47.2,315.2,47.8z"/>
	</g>
	<g>
		<path class="st6" d="M358.9,88.7c2.4,1.9,1.7,5.1-0.3,6.6c2.2,1.3,4.6,3.7,2.7,5.4c-2.7,2.3-6.5,1-8.2-1.7c-2.5,1.7-6,1.1-7.4-2.2
			c-0.7-1.7,0.6-3.7,1.9-4.6c1-0.7,2.3-0.7,3.5-0.4c0.3-1.2,1-2.4,2-3.2C355,87.3,357.1,87.3,358.9,88.7z"/>
		<path class="st5" d="M356.3,93c0.7,0.4,1,1.2,0.6,2c-0.1,0.1-0.1,0.2-0.2,0.3c-0.2,1.5-2.4,1.9-3.7,1.5c-0.7-0.2-1.3-0.7-1.4-1.5
			c-0.2-1,0.6-1.9,1.5-2.3C354.1,92.5,355.4,92.4,356.3,93z"/>
	</g>
	<g>
		<path class="st2" d="M395.2,61.1c-1.5,2.7-4.7,2.6-6.6,0.9c-0.9,2.4-2.8,5.2-4.8,3.6c-2.7-2.2-2.1-6.2,0.2-8.3
			c-2.1-2.1-2.2-5.7,0.8-7.6c1.5-1,3.8-0.1,4.9,1c0.9,0.9,1.1,2.1,1,3.4c1.3,0,2.6,0.6,3.5,1.4C395.9,57,396.3,59,395.2,61.1z"/>
		<path class="st5" d="M390.5,59.3c-0.3,0.8-1,1.2-1.9,1c-0.1,0-0.2-0.1-0.3-0.1c-1.5,0-2.3-2-2.2-3.4c0.1-0.8,0.5-1.4,1.3-1.7
			c1-0.4,2,0.2,2.5,1C390.6,57.1,390.9,58.3,390.5,59.3z"/>
	</g>
	<g>
		<path class="st2" d="M377.3,32.8c2.4,1.9,1.7,5.1-0.3,6.6c2.2,1.3,4.6,3.7,2.7,5.4c-2.7,2.3-6.5,1-8.2-1.7c-2.5,1.7-6,1.1-7.4-2.2
			c-0.7-1.7,0.6-3.7,1.9-4.6c1-0.7,2.3-0.7,3.5-0.4c0.3-1.2,1-2.4,2-3.2C373.4,31.3,375.5,31.3,377.3,32.8z"/>
		<path class="st5" d="M374.7,37c0.7,0.4,1,1.2,0.6,2c-0.1,0.1-0.1,0.2-0.2,0.3c-0.2,1.5-2.4,1.9-3.7,1.5c-0.7-0.2-1.3-0.8-1.4-1.5
			c-0.2-1,0.6-1.9,1.5-2.3C372.5,36.5,373.8,36.5,374.7,37z"/>
	</g>
	<g>
		<path class="st2" d="M332.5,85.9c2.4,1.9,1.7,5.1-0.3,6.6c2.2,1.3,4.6,3.7,2.7,5.4c-2.7,2.3-6.5,1-8.2-1.7c-2.5,1.7-6,1.1-7.4-2.2
			c-0.7-1.7,0.6-3.7,1.9-4.6c1-0.7,2.3-0.7,3.5-0.4c0.3-1.2,1-2.4,2-3.2C328.7,84.4,330.7,84.4,332.5,85.9z"/>
		<path class="st5" d="M330,90.1c0.7,0.4,1,1.3,0.6,2c-0.1,0.1-0.1,0.2-0.2,0.3c-0.2,1.5-2.4,1.9-3.7,1.5c-0.7-0.2-1.3-0.8-1.4-1.5
			c-0.2-1,0.6-1.9,1.5-2.3C327.8,89.6,329,89.6,330,90.1z"/>
	</g>
	<g>
		<path class="st6" d="M295.8,42.8c2.4,1.8,2.2,4.9,0.3,6.4c0,0,0,0,0.1,0c0.5,0.2,0.9,0.4,1.2,0.8c0.9,0.6,1.8,1.3,2.4,2.3
			c0.6,1.2-0.9,2.5-1.8,3c-2.6,1.4-4.5,0.2-5.8-1.8c-2.1,1.2-5.1,0.9-6.7-1.4c-1.4-2-0.5-4.3,1.3-5.6c0.9-0.7,2-0.8,3-0.6
			c-0.1-1.1,0.2-2.2,1.3-3C292.4,41.7,294.3,41.7,295.8,42.8z"/>
		<path class="st5" d="M293.8,46.9c0.5,0.5,0.8,1.2,0.8,1.9c0,0,0,0.1,0,0.1c0,0.2,0,0.4-0.1,0.5c-0.4,1.5-2,2.1-3.5,2.1
			c-0.8,0-1.4-0.3-1.6-1c-0.1-0.3-0.1-0.6-0.1-0.9c-0.1-0.8,0.2-1.8,0.7-2.3C291,46.3,292.7,45.9,293.8,46.9z"/>
	</g>
	<g>
		<path class="st6" d="M396.8,75.2c-2.2,2.1-5.2,1.4-6.4-0.8c0,0,0,0,0,0c-0.2,0.4-0.6,0.8-1,1.1c-0.8,0.8-1.6,1.6-2.7,1.9
			c-1.3,0.4-2.3-1.3-2.7-2.3c-0.9-2.8,0.6-4.5,2.8-5.4c-0.9-2.2,0-5.2,2.5-6.4c2.2-1,4.3,0.2,5.3,2.2c0.5,1,0.5,2.1,0.1,3
			c1.1,0.1,2.1,0.6,2.7,1.7C398.4,72,398.1,73.9,396.8,75.2z"/>
		<path class="st5" d="M393.1,72.5c-0.5,0.4-1.3,0.6-2,0.5c0,0-0.1,0-0.1,0c-0.2,0-0.3-0.1-0.5-0.2c-1.4-0.7-1.7-2.3-1.5-3.8
			c0.1-0.7,0.5-1.3,1.3-1.4c0.3-0.1,0.6,0,0.9,0.1c0.8,0,1.7,0.5,2.2,1.1C394.1,69.8,394.3,71.6,393.1,72.5z"/>
	</g>
	<g>
		<path class="st6" d="M384,59.3c2.4,1.8,2.2,4.9,0.3,6.4c0,0,0,0,0.1,0c0.5,0.2,0.9,0.4,1.2,0.8c0.9,0.6,1.8,1.3,2.4,2.3
			c0.6,1.2-0.9,2.5-1.8,3c-2.6,1.4-4.5,0.2-5.8-1.8c-2.1,1.2-5.1,0.9-6.7-1.4c-1.4-2-0.5-4.3,1.3-5.6c0.9-0.7,2-0.8,3-0.6
			c-0.1-1.1,0.2-2.2,1.3-3C380.6,58.2,382.5,58.1,384,59.3z"/>
		<path class="st5" d="M381.9,63.3c0.5,0.5,0.8,1.2,0.8,1.9c0,0,0,0.1,0,0.1c0,0.2,0,0.4-0.1,0.5c-0.4,1.5-2,2.1-3.5,2.1
			c-0.7,0-1.3-0.3-1.6-1c-0.1-0.3-0.1-0.6-0.1-0.9c-0.1-0.8,0.2-1.8,0.7-2.3C379.2,62.7,380.9,62.3,381.9,63.3z"/>
	</g>
	<g>
		<path class="st6" d="M371.3,29.5c0.5,3-1.7,5.1-4.2,4.9c0,0,0,0,0,0.1c0.2,0.4,0.4,0.9,0.4,1.4c0.3,1.1,0.5,2.2,0.1,3.3
			c-0.4,1.3-2.3,1.2-3.3,1c-2.9-0.8-3.4-3-3-5.3c-2.3-0.5-4.3-2.9-3.9-5.6c0.3-2.4,2.6-3.5,4.8-3.2c1.2,0.1,2,0.7,2.6,1.6
			c0.7-0.9,1.7-1.4,3-1.3C369.5,26.4,370.9,27.6,371.3,29.5z"/>
		<path class="st5" d="M367,31c0.1,0.7-0.3,1.4-0.7,2c0,0,0,0-0.1,0.1c-0.1,0.1-0.3,0.2-0.4,0.3c-1.4,0.8-2.9,0.1-4-0.8
			c-0.6-0.5-0.8-1.2-0.5-1.9c0.1-0.3,0.3-0.5,0.6-0.7c0.5-0.7,1.4-1.2,2.1-1.2C365.4,28.7,366.9,29.5,367,31z"/>
	</g>
	<g>
		<path class="st2" d="M349.1,43.2c0,2.1-0.9,3.3-2.5,4.3c0.9,0.9,1.7,1.9,2,3.2c0.4,1.5-0.7,3.4-2.2,3.5c-1.8,0.2-4.2-1.5-5.1-3.4
			c-0.5,0.1-1.1,0.2-1.7,0.1c-2.3-0.2-4.1-1.5-4.6-3.7c-0.4-2,2-4.1,3.8-4.4c0.7-0.1,1.4-0.1,1.9,0.1c0.5-2.3,2.8-4,5.4-3.6
			C348.2,39.6,349.1,41.2,349.1,43.2z"/>
		<path class="st5" d="M345.5,48.2c-0.6,1.1-1.9,1.3-3,1.1c-0.9-0.2-2.1-0.9-2.2-2c0-0.2,0-0.5,0.1-0.6c0.1-0.6,0.6-1.1,1.1-1.4
			c1-0.6,2.5-0.4,3.4,0.3C345.5,46.3,346,47.3,345.5,48.2z"/>
	</g>
	<g>
		<path class="st2" d="M348.6,86.4c0,2.1-0.9,3.3-2.5,4.3c0.9,0.9,1.7,1.9,2,3.2c0.4,1.5-0.7,3.4-2.2,3.5c-1.8,0.2-4.2-1.5-5.1-3.4
			c-0.5,0.1-1.1,0.2-1.7,0.1c-2.3-0.2-4.1-1.5-4.6-3.7c-0.4-2,2-4.1,3.8-4.4c0.7-0.1,1.4-0.1,1.9,0.1c0.5-2.3,2.8-4,5.4-3.6
			C347.7,82.8,348.6,84.4,348.6,86.4z"/>
		<path class="st5" d="M344.9,91.4c-0.6,1.1-1.9,1.3-3,1.1c-0.9-0.2-2.1-0.9-2.2-2c0-0.2,0-0.5,0.1-0.6c0.1-0.6,0.6-1.1,1.1-1.4
			c1-0.6,2.5-0.4,3.4,0.3C345,89.5,345.5,90.4,344.9,91.4z"/>
	</g>
	<g>
		<path class="st6" d="M309.8,40.1c2.1,0.1,4.4,1,4.4,3c0,1.5-1.9,2.7-3.2,2.9c-1.6,0.2-3-0.3-4.4-0.8c-0.2,1.8-1,3.5-2.6,4.4
			c-2.3,1.4-4.4,0.1-6.1-1.7c-1.9-2.1-1.4-4.1,0.7-5.7c0.8-0.6,1.7-1,2.5-1.2c-0.5-0.8-0.8-1.8-0.8-2.8c-0.1-2.1,2.3-3.9,4.2-3.8
			C307.2,34.6,310.7,37.5,309.8,40.1z"/>
		<path class="st5" d="M308.2,40.4c0.3,0.5,0.2,1.3,0,1.8c-0.1,0.2-0.2,0.5-0.4,0.6c-0.3,0.4-0.7,0.8-1.1,1
			c-1.1,0.5-2.9,0.6-3.5-0.5c-0.9-0.9-0.3-2.6,0.6-3.3C305.1,39,307.3,38.8,308.2,40.4z"/>
	</g>
	<g>
		<path class="st6" d="M353.7,31.3c2.1,0.1,4.4,1,4.4,3c0,1.5-1.9,2.7-3.2,2.9c-1.6,0.2-3-0.3-4.4-0.8c-0.2,1.8-1,3.5-2.6,4.4
			c-2.3,1.4-4.4,0.1-6.1-1.7c-1.9-2.1-1.4-4.1,0.7-5.7c0.8-0.6,1.6-1,2.5-1.2c-0.5-0.8-0.8-1.8-0.8-2.8c-0.1-2.1,2.3-3.9,4.2-3.8
			C351.2,25.8,354.6,28.7,353.7,31.3z"/>
		<path class="st5" d="M352.1,31.5c0.3,0.5,0.2,1.3,0,1.8c-0.1,0.2-0.2,0.5-0.4,0.6c-0.3,0.4-0.7,0.8-1.1,1
			c-1.1,0.5-2.9,0.6-3.5-0.5c-0.9-0.9-0.3-2.6,0.6-3.3C349.1,30.2,351.3,30,352.1,31.5z"/>
	</g>
	<g>
		<path class="st6" d="M386,46.1c2.1,0.1,4.4,1,4.4,3c0,1.5-1.9,2.7-3.2,2.9c-1.6,0.2-3-0.3-4.4-0.8c-0.2,1.8-1,3.5-2.6,4.4
			c-2.3,1.4-4.4,0.1-6.1-1.7c-1.9-2.1-1.4-4.1,0.7-5.7c0.8-0.6,1.7-1,2.5-1.2c-0.5-0.8-0.8-1.8-0.8-2.8c-0.1-2.1,2.3-3.9,4.2-3.8
			C383.4,40.6,386.8,43.5,386,46.1z"/>
		<path class="st5" d="M384.4,46.3c0.3,0.5,0.2,1.3,0,1.8c-0.1,0.2-0.2,0.5-0.4,0.6c-0.3,0.4-0.7,0.8-1.1,1
			c-1.1,0.5-2.9,0.6-3.5-0.5c-0.9-0.9-0.3-2.6,0.6-3.3C381.3,45,383.5,44.8,384.4,46.3z"/>
	</g>
	<g>
		<path class="st6" d="M371.8,70.2c2.1,0.1,4.4,1,4.4,3c0,1.5-1.9,2.7-3.2,2.9c-1.6,0.2-3-0.3-4.4-0.8c-0.2,1.8-1,3.5-2.6,4.4
			c-2.3,1.4-4.4,0.1-6.1-1.7c-1.9-2.1-1.4-4.1,0.7-5.7c0.8-0.6,1.7-1,2.5-1.2c-0.5-0.8-0.8-1.8-0.8-2.8c-0.1-2.1,2.3-3.9,4.2-3.8
			C369.3,64.7,372.7,67.6,371.8,70.2z"/>
		<path class="st5" d="M370.2,70.4c0.3,0.5,0.2,1.3,0,1.8c-0.1,0.2-0.2,0.5-0.4,0.6c-0.3,0.4-0.7,0.8-1.1,1
			c-1.1,0.5-2.9,0.6-3.5-0.5c-0.9-0.9-0.3-2.6,0.6-3.3C367.2,69.1,369.4,68.9,370.2,70.4z"/>
	</g>
	<g>
		<path class="st6" d="M349.2,113.4c2.1,0.1,4.4,1,4.4,3c0,1.5-1.9,2.7-3.2,2.9c-1.6,0.2-3-0.3-4.4-0.8c-0.2,1.8-1,3.5-2.6,4.4
			c-2.3,1.4-4.4,0.1-6.1-1.7c-1.9-2.1-1.4-4.1,0.7-5.7c0.8-0.6,1.7-1,2.5-1.2c-0.5-0.8-0.8-1.8-0.8-2.8c-0.1-2.1,2.3-3.9,4.2-3.8
			C346.7,107.9,350.1,110.8,349.2,113.4z"/>
		<path class="st5" d="M347.6,113.6c0.3,0.5,0.2,1.3,0,1.9c-0.1,0.2-0.2,0.5-0.4,0.6c-0.3,0.4-0.7,0.8-1.1,1
			c-1.1,0.5-2.9,0.6-3.5-0.5c-0.9-0.9-0.3-2.6,0.6-3.3C344.6,112.3,346.8,112.1,347.6,113.6z"/>
	</g>
	<path class="st3" d="M314.8,94.7c1.8,1.5,0.5,3.8-0.6,5.4c-1.4,1.9-3.7,3-6,3.5c1.4,2.1,2.5,4.2,2.6,6.9c0,2.3-0.9,4.7-3.3,5.4
		c-2.1,0.6-4.6-0.5-4.8-2.8c-0.3-3.4,2.5-6.2,2.2-9.4c0,0,0-0.1,0-0.1c0-0.3,0.2-0.6,0.5-0.9c0.7-2.5,1.9-5,3.7-6.8
		C310.4,94.5,313.1,93.3,314.8,94.7z"/>
	<path class="st3" d="M282.6,76c1,2,0.6,4.7-0.3,6.9c0,0.1,0,0.3,0,0.4c0,0.3-0.2,0.6-0.5,0.8c0,0.1-0.1,0.1-0.1,0.2
		c2.3-0.1,4.6-0.1,6.7,0.8c1.7,0.7,4.6,3,2.2,4.8c-1.7,1.3-4.3,0.9-6.1,0.1c-1.4-0.6-2.6-1.5-3.9-2.3c-0.9-0.6-1.3-0.8-1.7-1.5
		c-0.1,0-0.2-0.1-0.3-0.2c-0.1-0.1-0.2-0.2-0.2-0.3c-1.5-2.1-2.3-4.3-2.5-6.9c-0.1-1.6,0-4,1.7-4.7C279.8,73.2,281.6,74.1,282.6,76z
		"/>
	<path class="st3" d="M337.6,68.2c1.6,2.7-0.7,5.6-2.2,7.8c1.2,0.1,2.3,0.3,3.5,0.2c1.4-0.2,2.7-0.4,4.1-0.3c1.6,0.1,4,1.4,3.1,3.3
		c-2.2,4.4-9.7,0.1-12.6-0.7c0,0,0,0-0.1,0c0,0-0.1,0-0.1,0c-0.2-0.1-0.3-0.2-0.4-0.3c0,0,0-0.1-0.1-0.1c-0.5,0.1-1-0.1-1.2-0.5
		c-1.1-2.7-2.2-8.4,0.8-10.3C334.2,66.1,336.6,66.4,337.6,68.2z"/>
	<path class="st3" d="M258,94.4c2.2,1.4-0.2,3.6-1.6,4.3c-1.3,0.7-2.8,1.1-4.3,1.3c1.1,0.9,2.3,1.7,3.4,2.7c1,1,2.8,2.5,1.3,3.8
		c-1.8,1.6-4.6,0.6-6.2-0.8c-1.8-1.6-3.3-3.6-2.9-6.1c-0.1-0.2,0-0.4,0.2-0.6c0.1-0.1,0.2-0.3,0.3-0.3c1.3-1.2,2.6-2.4,4.1-3.4
		C253.6,94.3,256.5,93.4,258,94.4z"/>
</g>
<g>
	<g>
		<path class="st3" d="M385,127.8c0.3,0.2,0.2,0.6,0,0.8c-7.4,4.9-16.3,6.2-24.9,7.3c-4.2,0.5-9.2,0.2-13.3-0.8
			c-4-1-7.8-2.3-10.8-5.2c-0.1,0-0.2-0.1-0.2-0.2c-0.1-0.2-0.2-0.5-0.2-0.7c-0.1-0.2-0.1-0.4,0.1-0.5c2.5-2.7,6.1-4.6,9.3-6.3
			c4-2.2,8.8-2.1,13.1-2.3C367.5,119.3,377.2,123.1,385,127.8z"/>
	</g>
	<g>
		<path class="st3" d="M360.8,107.9c-11.5,7.6-22.5,18.4-37.3,15.7c-0.2,0-0.4,0-0.5,0c-0.6,0-1.1-0.4-0.9-1c2.6-7.6,6-12.3,14-14.6
			c8.2-2.3,16.5-2.8,24.9-1.8C362.1,106.4,361.4,107.6,360.8,107.9z"/>
	</g>
	<g>
		<path class="st3" d="M332.2,98.5c-3.9,6.9-9.4,13-15.2,18.3c-5.2,4.7-10.8,6.2-17.7,4.7c-0.2,0-0.3-0.1-0.4-0.1
			c-0.2-0.1-0.5-0.2-0.7-0.3c-0.2-0.1-0.4-0.4-0.4-0.6c1.2-6.6,5.7-12.5,11.5-15.8c6.5-3.6,14.1-6.5,21.5-7.2
			C331.4,97.5,332.7,97.7,332.2,98.5z"/>
	</g>
	<g>
		<path class="st3" d="M303.1,98.9c-4.7,5.7-9.2,12.2-15.7,15.9c-5.9,3.4-13.4,3.1-19.1-0.3c-0.3-0.1-0.5-0.2-0.5-0.5
			c0-0.1,0-0.2,0-0.3c2.2-15.8,22.2-16.1,34.6-16.1C303,97.6,303.6,98.2,303.1,98.9z"/>
	</g>
	<g>
		<path class="st3" d="M260.6,119.8C260.6,119.9,260.6,119.9,260.6,119.8c0.2,0.1,0.3,0.2,0.4,0.3c0.1,0.1,0.1,0.1,0.1,0.2
			c6.7,3.3,13.5,4.3,18.7,10.2c4.9,5.6,7.1,13.6,10,20.3c0.4,1-1.7,1.8-2.4,1.4c-6.7-4.7-15-7.1-21.4-12.4c-5.3-4.4-9.9-11.8-8-18.9
			c-0.1-0.2,0-0.4,0.2-0.6C258.5,119.7,260,119.3,260.6,119.8z"/>
	</g>
	<g>
		<path class="st3" d="M309.5,134.7c8.5,6.4,14.1,17.5,16.3,27.8c0.2,1.1-1.6,1.9-2.4,1.3c-10.7-7-34.8-14.9-30.8-31.6
			c0-0.1,0-0.3,0.1-0.4C295.4,126.7,306.5,132.4,309.5,134.7z"/>
	</g>
	<g>
		<path class="st3" d="M338.9,136.1c6.5,4.8,9.6,12.7,13.4,19.6c0.6,1.1-1.8,1.6-2.4,1.3c-9.9-3.9-34.3-9.6-31.2-24.9
			c0-0.1,0.1-0.3,0.2-0.4c0.1-0.3,0.4-0.6,0.9-0.7C325.9,129,334.2,132.6,338.9,136.1z"/>
	</g>
	<g>
		<path class="st0" d="M339.1,115.2c-6,6.1-14.4,9.4-22.6,11.8l4,0.5c2.6,0.3,5.2-0.3,7.8,0c4.9,0.6,10.4,0.5,15.3-0.1
			c4.5-0.5,9-1.6,13.5-1.8c2.5-0.1,0.6,2.6-1.1,2.7c-4.8,0.2-10.2,1.2-14.9,2.1c-3.7,0.7-9,0.5-12.8,0c-3.1-0.4-6.1-0.4-9.2-0.5
			c5.7,2.5,11.2,6.1,15.2,10.3c1.3,1.3-2.2,3-3.3,1.9c-5.7-5.9-14.7-10.7-22.7-12.5c-0.6-0.1-0.9-0.4-0.9-0.8
			c-3.6-0.4-7.3-0.8-10.9-1.3c-3.2-0.4-6.3-1-9.5-1.6c2.2,1.2,4.5,2.4,6.7,3.6c2.1,1.1,4.1,2.4,5.6,4.2c1.9,2.2,4.7,3.8,6,6.4
			c0.7,1.5-2.9,2.8-3.7,1.3c-1.1-2.2-3.9-4.2-5.7-5.9c-2.5-2.3-5.1-3.8-8.1-5.3c-5.1-2.5-9.9-5.4-14.9-7.8c-0.1-0.1-0.2-0.1-0.3-0.2
			c-3.6-1.2-7.2-2.5-10.7-3.9c-1-0.4-2-0.8-3-1.2c1,1.3,2,2.7,3,4c2.6,3.3,5.7,6,8.3,9.4c1.1,1.5-2.4,3.1-3.3,1.9
			c-2.4-3.1-5-5.7-7.6-8.6c-2.7-2.9-4.6-6.4-7.5-9.1c-0.1-0.1-0.2-0.3-0.3-0.4c-5.6-2.2-11.2-4.5-16.3-7.7c-1.8-1.1,1.5-3.1,2.8-2.3
			c6.1,3.9,13.2,6.7,20.1,9.4c0.1,0,0.2,0,0.3,0c6.7-0.8,12.9-0.7,19-4.2c1.8-1,4,0.6,1.8,1.9c-3.5,2-7.1,3.1-11,4.1
			c-1.3,0.3-2.6,0.4-4,0.5c6.2,2.3,12.5,4.4,18.8,6c0.1,0,0.2,0,0.3,0c9.2,0.2,17-0.9,24.4-7c1.3-1.1,4.5-0.3,2.6,1.3
			c-5.6,4.6-11.5,6.9-17.9,7.8c2,0.4,4.1,0.7,6.1,1c4,0.6,8,0.9,12,1.3c0.2-0.1,0.5-0.2,0.7-0.3c8.8-2.3,18.8-5.5,25.3-12.1
			C337.8,112.6,340.9,113.3,339.1,115.2z"/>
	</g>
	<g>
		<path class="st0" d="M253.7,104.4c0.2,0,0.3,0.1,0.5,0.2c0.6,0.4,0.7,1.2,0.3,1.8c-0.1,0.1-0.2,0.2-0.3,0.3
			c-0.2,0.3-0.6,0.5-0.9,0.6c-1,0.4-2.5,0.7-3.5,0.2c-0.2,0.2-0.5,0.4-0.7,0.4c-1.2,0.5-2.5,1.2-3.9,1.5c0.3,0.8,0.4,1.6,0.4,2.4
			c0.1,1.2,0.4,2.3,0.8,3.4c0.3,0,0.6,0.1,0.9,0.2c1.3,0.6,2.2,2.4,1.1,3.6c-0.2,0.2-0.4,0.3-0.6,0.5c-1.5,2-6.1,0.6-5-2
			c0.2-0.4,0.5-0.8,0.9-1.1c-0.3-1-0.5-1.9-0.7-3c-0.3-1.3-0.2-2.6-0.9-3.8c-0.3-0.6,0.3-1.1,1.1-1.4c0.4-0.5,1.1-0.8,1.6-0.7
			c0.4,0,1-0.3,1.4-0.5c0.8-0.3,1.5-0.6,2.2-0.9c0.1,0,0.2-0.1,0.4-0.1c0-0.1,0-0.2,0-0.3c-0.1-1.2,1.1-2.1,2.3-2.3
			C252,103.5,253.1,103.7,253.7,104.4z"/>
	</g>
</g>
<g>
	<path class="st1" d="M137.7,77.2c9.7,5,28.9,17.9,38.4,17.6c7.4-0.2,18.6-4.6,21.5-5.2c0.1,4.3-2.5,13.1-1.5,18.5
		c1.7,9.6,8.6,18.5,11.7,21.9c3.6,3.8,9.3,9.3,12.9,13.1c0.6,0.7,1.7-0.3,1.7-1.2c0.4-4.9-1.6-11.3,0.5-15.9s3.1-18.8,0.3-25.3
		c-2.7-6.5-12.9-10.1-14.9-12.8c0.3-0.2,7.8-1.3,12.4-2.1c5-0.9,12.5-6.2,15.7-9.9c1.7-1.9,2.3-4.2,3.7-6.3c1.2-1.8,2.4-5.8,3.5-7.6
		c2.3-4.3,3-5.1,5.7-9.3c0.7-1.1-1.3-1.2-2.1-0.9c-4.7,2.6-10.4,4.7-15.7,5.2c-4.6,0.5-7.8,1.1-12.4,2.1c-4,0.8-15.1,6.3-15.7,9.9
		c-0.9,4.4-2.1,11.1-2.7,11.7c-4.1-0.5-9.6-9.6-17.8-11c-8.2-1.3-16.3,0.8-20.3,2.1c-2.7,0.9-13.9,2.4-16.8,3.1
		c-2.5,0.7-5.1,0.3-7.6,1C137.4,76,136.7,76.8,137.7,77.2z"/>
	<g>
		<path class="st2" d="M270.5,115.9c-8.7-8.1-25.5-27.8-35.2-29.9c-7.7-1.7-20.1,0.6-23.1,0.6c0.7-5.1,5.6-14.6,5.9-21.1
			c0.5-11.5-4.4-23.6-7-28.3c-2.9-5.2-7.3-13-10.2-18.2c-0.5-0.8-1.8-0.1-2,0.9c-1.4,5.5-0.9,13.5-4.3,18.3
			c-3.3,4.8-7.5,21.1-6.2,29.4c1.3,8.3,10.9,14.8,12.4,18.6c-0.3,0-8.2-0.4-13.1-0.6c-5.3-0.2-14.2,4.2-18.4,7.4
			c-2.2,1.7-3.3,4.3-5.2,6.4c-1.7,1.7-3.9,6.1-5.3,8c-3.5,4.5-4.3,5.1-8,9.4c-0.9,1.1,1.1,1.9,1.9,1.6c5.5-1.7,11.6-2.8,17.2-2.2
			c4.8,0.5,8.4,0.7,13.1,0.6c4.3,0,16.9-3.5,18.4-7.4c1.9-4.9,4.7-12.3,5.5-12.9c4,1.7,7.6,13.5,15.7,17.1c8.1,3.6,16.8,3,21.3,2.6
			c3-0.4,14.8,0.8,17.8,0.6c2.6-0.2,5.2,0.9,8,0.8C270.6,117.2,271.3,116.6,270.5,115.9z"/>
		<path class="st1" d="M231.8,100.7c2.1,0.6,6.2,1.6,7.7,0c2.6-2.4-2.8-4.4-8.1-5.8c3.6-0.5,7-1.3,5.9-3.4c-1.4-2.4-4.5-2.5-7-2.4
			c-4.8,0.1-9.7,0.4-14.5,0.5c-1,0-1.2,0.4-1,0.9c-0.3,0-0.7,0-1,0c-0.7,0-1.2,0.4-1.2,0.8c-1.2-0.1-2.3,0.6-1.4,1.4
			c3.3,3.1,7.2,5.9,11,8.2c2.1,1.2,5.4,3.7,7.9,2.8C232.2,103.5,232.7,102.1,231.8,100.7z"/>
		<path class="st1" d="M207.4,82.2l1.5-1.1c0.3-0.2,0.3-0.3,0.4-0.6c1.2-3.9,2.7-8,3.2-11.9c0.2-1.8,0.7-5.7-1.9-6.3
			c-2-0.6-3.3,0.3-4,2c-0.3-1.5-0.5-2.8-1-4.3c-0.7-2.3-2.1-7.7-5.6-7.5c-4,0.3-2.5,5-1.5,7.5c0.3,0.8,0.7,1.8,1,2.7
			c-1.1-1-3-1.9-4.2-0.8c-2.1,2.1,0.4,5.5,1.7,7.2c2.8,4.2,4.9,8.9,7.8,13C205.4,82.6,206.7,82.7,207.4,82.2z"/>
		<path class="st1" d="M193.8,103.2c3.1-2.5,5.7-5.2,8.3-8.4c0-0.2,0.2-0.3,0-0.5l-2.1-4.5l-0.2-0.2c-0.2-0.3-0.5-0.7-1.3-0.7
			c-3.6-0.2-7.1,0.3-10.4,1.4c-2,0.6-4.8,0.6-6.5,1.9c-1.4,1.1-0.9,2.8,0.7,3.5c0.2,0,0.3,0.2,0.5,0.2c-2.2,0.7-4.3,1.5-6.4,2.4
			c-1.8,0.7-4.4,2.4-3,4.6c1.4,2.5,5.7,1.7,7.9,1.2c0.7-0.1,1.3-0.4,2-0.6c-0.9,1.8,0.3,3.5,2.3,3.7
			C189,107.6,191.3,105.2,193.8,103.2z"/>
	</g>
	<g>
		<path class="st7" d="M217.3,79c-0.2-0.2-0.5-0.2-0.7-0.2c-0.7-0.2-1.1-0.2-1.8,0.2c-0.2,0.2-0.4,0.5-0.5,0.6
			c0,0.2-0.2,0.2-0.2,0.3l0,0l0,0.2c-0.2,0.3-0.2,0.7,0,0.8c-1.5,1.3-2.7,2.5-4.1,3.9c-1.6,1.7-3.3,3.3-4.8,5.1
			c-1,1.1,0.5,2.7,1.6,1.6c1.4-1.6,3.1-3,4.5-4.6c1.4-1.6,2.8-3.2,4.3-4.4c0.3,0,0.5,0,0.8,0c0.3,0,0.8-0.1,1.2-0.4
			C218.6,81.6,218.7,79.7,217.3,79z"/>
	</g>
	<g>
		<path class="st7" d="M203.7,88.3c-0.7-2-0.8-4.3-1.4-6.3c-0.3-1.3-0.9-2.7-1.1-4c-0.1-0.7-0.4-1.3-0.6-2.2c0.5-0.1,1-0.6,1.4-1.1
			c0.7-1.3-0.4-2.7-1.7-3.2c-0.6-0.4-1.1-0.2-1.8-0.1c-0.5,0-0.8,0.1-1.2,0.6c-0.4,0.5-0.5,1-0.6,1.6c0,0.7,0.1,1.3,0.6,1.7
			c0.3,0.2,0.5,0.4,0.8,0.4c0.3,1.7,1,3.7,1.4,5.2c0.7,2.7,0.9,5.5,1.8,8C202.1,90.4,204.3,89.7,203.7,88.3z"/>
	</g>
	<g>
		<path class="st7" d="M212.7,73.9c-0.4-2-3.4-1.8-4.1-0.2c-0.5,1-0.1,1.8,0.6,2.3c-0.6,1.6-1.1,3.2-1.5,4.9
			c-0.4,1.8-1.2,3.7-1.2,5.5c-0.1,1.5,2.1,1.9,2.1,0.4c0.1-1.6,0.8-3.3,1-4.9c0.4-1.8,1.1-3.6,1.7-5.4c0.3,0,0.5-0.1,0.7-0.3
			C212.8,75.7,213,74.7,212.7,73.9z"/>
	</g>
	<g>
		<path class="st7" d="M205.8,69.8c-1.1-1.7-3.8-0.7-4,1.1c0,1,0.6,1.8,1.4,2c-0.1,1.6,0,3.5,0.1,5.1c0.1,1.8,0.2,3.8,0.6,5.6
			c0.3,1.3,2.6,1.1,2.2-0.4c-0.4-1.5-0.3-3.3-0.6-5c-0.2-1.8-0.2-3.8-0.1-5.8c0.2-0.2,0.5-0.3,0.7-0.5
			C206.4,71.3,206.3,70.5,205.8,69.8z"/>
	</g>
</g>
</svg>
