<?xml version="1.0"?><svg width="499" height="490" xmlns="http://www.w3.org/2000/svg">
 <title>pearl pink rose</title>

 <g>
  <title>Layer 1</title>
  <path transform="rotate(11.0715, 268.498, 189.002)" id="svg_56" d="m280.931641,143.685547c67,-20 32,93 32,93c0,0 -98,-72 -98,-72c0,0 66,-21 66,-21z" stroke-width="5" stroke="#ffffff" fill="#f2c1c1"/>
  <path transform="rotate(93.3405, 278.77, 246.014)" id="svg_58" d="m290.916656,197.440414c65.474304,-21.438293 31.271301,99.688126 31.271301,99.688126c0,0 -95.768356,-77.177902 -95.768356,-77.177902c0,0 64.497055,-22.510223 64.497055,-22.510223z" stroke-width="5" stroke="#ffffff" fill="#f2c1c1"/>
  <path transform="rotate(-38.8556, 230.502, 190.998)" id="svg_59" d="m242.933594,145.683594c67,-20 32,93 32,93c0,0 -98,-72 -98,-72c0,0 66,-21 66,-21z" stroke-width="5" stroke="#ffffff" fill="#f2c1c1"/>
  <path id="svg_60" transform="rotate(-112.597, 201.727, 222.553)" d="m212.964478,181.851974c60.567474,-17.964661 28.927734,83.53566 28.927734,83.53566c0,0 -88.591232,-64.67276 -88.591232,-64.67276c0,0 59.663498,-18.8629 59.663498,-18.8629z" stroke-width="5" stroke="#ffffff" fill="#f2c1c1"/>
  <path id="svg_61" transform="rotate(-177.296, 222.379, 268.721)" d="m231.794525,234.802261c50.754883,-14.971054 24.241119,69.615402 24.241119,69.615402c0,0 -74.238495,-53.895782 -74.238495,-53.895782c0,0 49.997375,-15.71962 49.997375,-15.71962z" stroke-width="5" stroke="#ffffff" fill="#f2c1c1"/>
  <path id="svg_62" transform="rotate(130.148, 257.111, 258.758)" d="m265.374146,228.821732c44.540649,-13.213303 21.273132,61.441879 21.273132,61.441879c0,0 -65.149048,-47.567886 -65.149048,-47.567886c0,0 43.875916,-13.873993 43.875916,-13.873993z" stroke-width="5" stroke="#ffffff" fill="#f2c1c1"/>
  <path id="svg_63" transform="rotate(54.7642, 286.442, 208.963)" d="m294.980957,178.938034c46.016388,-13.252625 21.977966,61.624832 21.977966,61.624832c0,0 -67.307602,-47.709518 -67.307602,-47.709518c0,0 45.329636,-13.915314 45.329636,-13.915314z" stroke-width="5" stroke="#ffffff" fill="#f2c1c1"/>
  <path id="svg_64" transform="rotate(-18.7441, 262.16, 186.596)" d="m268.929962,161.638199c36.48819,-11.015228 17.427185,51.220963 17.427185,51.220963c0,0 -53.37085,-39.654907 -53.37085,-39.654907c0,0 35.943665,-11.566055 35.943665,-11.566055z" stroke-width="5" stroke="#ffffff" fill="#f2c1c1"/>
  <path id="svg_65" transform="rotate(-79.518, 215.787, 190.656)" d="m222.558868,165.700699c36.48819,-11.015228 17.427185,51.220963 17.427185,51.220963c0,0 -53.37085,-39.654907 -53.37085,-39.654907c0,0 35.943665,-11.566055 35.943665,-11.566055z" stroke-width="5" stroke="#ffffff" fill="#f2c1c1"/>
  <path id="svg_66" transform="rotate(-136.184, 213.15, 227.041)" d="m219.277573,204.828018c33.024521,-9.804688 15.772903,45.591965 15.772903,45.591965c0,0 -48.304581,-35.296982 -48.304581,-35.296982c0,0 32.531677,-10.294983 32.531677,-10.294983z" stroke-width="5" stroke="#ffffff" fill="#f2c1c1"/>
  <path id="svg_67" transform="rotate(170.754, 233.908, 249.578)" d="m240.0354,227.363174c33.024506,-9.804688 15.772888,45.591965 15.772888,45.591965c0,0 -48.304581,-35.296982 -48.304581,-35.296982c0,0 32.531693,-10.294983 32.531693,-10.294983z" stroke-width="5" stroke="#ffffff" fill="#f2c1c1"/>
  <path id="svg_68" transform="rotate(118.284, 266.678, 241.074)" d="m272.806885,218.861221c33.024506,-9.804688 15.772888,45.591965 15.772888,45.591965c0,0 -48.304581,-35.296982 -48.304581,-35.296982c0,0 32.531693,-10.294983 32.531693,-10.294983z" stroke-width="5" stroke="#ffffff" fill="#f2c1c1"/>
  <path id="svg_69" transform="rotate(25.7592, 276.982, 215.73)" d="m281.909729,195.360672c26.557312,-8.991119 12.684082,41.808853 12.684082,41.808853c0,0 -38.845108,-32.368134 -38.845108,-32.368134c0,0 26.161026,-9.44072 26.161026,-9.44072z" stroke-width="5" stroke="#ffffff" fill="#f2c1c1"/>
  <path id="svg_70" transform="rotate(-15.8297, 254.625, 212.055)" d="m259.552307,191.684891c26.557312,-8.991119 12.684082,41.808853 12.684082,41.808853c0,0 -38.845108,-32.368134 -38.845108,-32.368134c0,0 26.161026,-9.44072 26.161026,-9.44072z" stroke-width="5" stroke="#ffffff" fill="#f2c1c1"/>
  <path id="svg_71" transform="rotate(-68.278, 230.809, 213.055)" d="m235.735901,192.684891c26.557312,-8.991119 12.684082,41.808853 12.684082,41.808853c0,0 -38.845108,-32.368134 -38.845108,-32.368134c0,0 26.161026,-9.44072 26.161026,-9.44072z" stroke-width="5" stroke="#ffffff" fill="#f2c1c1"/>
  <path id="svg_72" transform="rotate(-125.645, 225.289, 229.496)" d="m229.449631,213.716141c22.425095,-6.965164 10.710495,32.388107 10.710495,32.388107c0,0 -32.800949,-25.074661 -32.800949,-25.074661c0,0 22.090454,-7.313446 22.090454,-7.313446z" stroke-width="5" stroke="#ffffff" fill="#f2c1c1"/>
  <path id="svg_73" transform="rotate(-154.354, 240.262, 242.129)" d="m244.422302,226.348953c22.425079,-6.965164 10.71048,32.388107 10.71048,32.388107c0,0 -32.800949,-25.074661 -32.800949,-25.074661c0,0 22.090469,-7.313446 22.090469,-7.313446z" stroke-width="5" stroke="#ffffff" fill="#f2c1c1"/>
  <path id="svg_74" transform="rotate(152.945, 252.191, 252.006)" d="m256.35199,236.225906c22.425079,-6.965164 10.71048,32.388107 10.71048,32.388107c0,0 -32.800949,-25.074661 -32.800949,-25.074661c0,0 22.090469,-7.313446 22.090469,-7.313446z" stroke-width="5" stroke="#ffffff" fill="#f2c1c1"/>
  <path id="svg_75" transform="rotate(81.5699, 264.988, 239.078)" d="m269.150818,223.298172c22.425079,-6.965164 10.71048,32.388107 10.71048,32.388107c0,0 -32.800949,-25.074661 -32.800949,-25.074661c0,0 22.090469,-7.313446 22.090469,-7.313446z" stroke-width="5" stroke="#ffffff" fill="#f2c1c1"/>
  <path id="svg_76" transform="rotate(25.8728, 253.699, 223.549)" d="m257.859802,207.768875c22.425079,-6.965164 10.71048,32.388107 10.71048,32.388107c0,0 -32.800949,-25.074661 -32.800949,-25.074661c0,0 22.090469,-7.313446 22.090469,-7.313446z" stroke-width="5" stroke="#ffffff" fill="#f2c1c1"/>
  <path id="svg_77" transform="rotate(-16.3936, 248.77, 214.006)" d="m251.646698,202.622498c15.507568,-5.024536 7.406586,23.364182 7.406586,23.364182c0,0 -22.682785,-18.088394 -22.682785,-18.088394c0,0 15.276199,-5.275787 15.276199,-5.275787z" stroke-width="5" stroke="#ffffff" fill="#f2c1c1"/>
  <path id="svg_78" transform="rotate(-67.8464, 240.684, 220.957)" d="m243.88533,209.036255c17.245224,-5.261765 8.236496,24.467285 8.236496,24.467285c0,0 -25.224426,-18.942413 -25.224426,-18.942413c0,0 16.98793,-5.524872 16.98793,-5.524872z" stroke-width="5" stroke="#ffffff" fill="#f2c1c1"/>
  <path id="svg_79" transform="rotate(125.001, 245.678, 229.768)" d="m248.13858,220.095398c13.252991,-4.268372 6.329773,19.848007 6.329773,19.848007c0,0 -19.385025,-15.366196 -19.385025,-15.366196c0,0 13.055252,-4.481812 13.055252,-4.481812z" stroke-width="5" stroke="#ffffff" fill="#f2c1c1"/>
  <path id="svg_84" transform="rotate(18.5387, 250.532, 230.243)" d="m252.108398,223.281235c8.497955,-3.072983 4.058716,14.289429 4.058716,14.289429c0,0 -12.429886,-11.062775 -12.429886,-11.062775c0,0 8.37117,-3.226654 8.37117,-3.226654z" stroke-width="5" stroke="#ffffff" fill="#f2c1c1"/>
 </g>
</svg>